<?xml version="1.0" encoding="utf-8" standalone="no"?>
<!DOCTYPE svg PUBLIC "-//W3C//DTD SVG 1.1//EN"
  "http://www.w3.org/Graphics/SVG/1.1/DTD/svg11.dtd">
<!-- Created with matplotlib (https://matplotlib.org/) -->
<svg height="565.317795pt" version="1.1" viewBox="0 0 603.788166 565.317795" width="603.788166pt" xmlns="http://www.w3.org/2000/svg" xmlns:xlink="http://www.w3.org/1999/xlink">
 <metadata>
  <rdf:RDF xmlns:cc="http://creativecommons.org/ns#" xmlns:dc="http://purl.org/dc/elements/1.1/" xmlns:rdf="http://www.w3.org/1999/02/22-rdf-syntax-ns#">
   <cc:Work>
    <dc:type rdf:resource="http://purl.org/dc/dcmitype/StillImage"/>
    <dc:date>2022-10-29T09:25:34.265790</dc:date>
    <dc:format>image/svg+xml</dc:format>
    <dc:creator>
     <cc:Agent>
      <dc:title>Matplotlib v3.3.4, https://matplotlib.org/</dc:title>
     </cc:Agent>
    </dc:creator>
   </cc:Work>
  </rdf:RDF>
 </metadata>
 <defs>
  <style type="text/css">*{stroke-linecap:butt;stroke-linejoin:round;}</style>
 </defs>
 <g id="figure_1">
  <g id="patch_1">
   <path d="M 0 565.317795 
L 603.788166 565.317795 
L 603.788166 0 
L 0 0 
z
" style="fill:none;"/>
  </g>
  <g id="axes_1">
   <g id="patch_2">
    <path d="M 82.915 442.594045 
L 585.115 442.594045 
L 585.115 7.714045 
L 82.915 7.714045 
z
" style="fill:#ffffff;"/>
   </g>
   <g id="matplotlib.axis_1">
    <g id="xtick_1">
     <g id="line2d_1">
      <defs>
       <path d="M 0 0 
L 0 3.5 
" id="mdb0173c5c9" style="stroke:#000000;stroke-width:0.8;"/>
      </defs>
      <g>
       <use style="stroke:#000000;stroke-width:0.8;" x="105.742273" xlink:href="#mdb0173c5c9" y="442.594045"/>
      </g>
     </g>
     <g id="text_1">
      <!-- 0 -->
      <g transform="translate(88.563523 490.625607)scale(0.54 -0.54)">
       <defs>
        <path d="M 31.78125 66.40625 
Q 24.171875 66.40625 20.328125 58.90625 
Q 16.5 51.421875 16.5 36.375 
Q 16.5 21.390625 20.328125 13.890625 
Q 24.171875 6.390625 31.78125 6.390625 
Q 39.453125 6.390625 43.28125 13.890625 
Q 47.125 21.390625 47.125 36.375 
Q 47.125 51.421875 43.28125 58.90625 
Q 39.453125 66.40625 31.78125 66.40625 
z
M 31.78125 74.21875 
Q 44.046875 74.21875 50.515625 64.515625 
Q 56.984375 54.828125 56.984375 36.375 
Q 56.984375 17.96875 50.515625 8.265625 
Q 44.046875 -1.421875 31.78125 -1.421875 
Q 19.53125 -1.421875 13.0625 8.265625 
Q 6.59375 17.96875 6.59375 36.375 
Q 6.59375 54.828125 13.0625 64.515625 
Q 19.53125 74.21875 31.78125 74.21875 
z
" id="DejaVuSans-48"/>
       </defs>
       <use xlink:href="#DejaVuSans-48"/>
      </g>
     </g>
    </g>
    <g id="xtick_2">
     <g id="line2d_2">
      <g>
       <use style="stroke:#000000;stroke-width:0.8;" x="333.986469" xlink:href="#mdb0173c5c9" y="442.594045"/>
      </g>
     </g>
     <g id="text_2">
      <!-- 20 -->
      <g transform="translate(299.628969 490.625607)scale(0.54 -0.54)">
       <defs>
        <path d="M 19.1875 8.296875 
L 53.609375 8.296875 
L 53.609375 0 
L 7.328125 0 
L 7.328125 8.296875 
Q 12.9375 14.109375 22.625 23.890625 
Q 32.328125 33.6875 34.8125 36.53125 
Q 39.546875 41.84375 41.421875 45.53125 
Q 43.3125 49.21875 43.3125 52.78125 
Q 43.3125 58.59375 39.234375 62.25 
Q 35.15625 65.921875 28.609375 65.921875 
Q 23.96875 65.921875 18.8125 64.3125 
Q 13.671875 62.703125 7.8125 59.421875 
L 7.8125 69.390625 
Q 13.765625 71.78125 18.9375 73 
Q 24.125 74.21875 28.421875 74.21875 
Q 39.75 74.21875 46.484375 68.546875 
Q 53.21875 62.890625 53.21875 53.421875 
Q 53.21875 48.921875 51.53125 44.890625 
Q 49.859375 40.875 45.40625 35.40625 
Q 44.1875 33.984375 37.640625 27.21875 
Q 31.109375 20.453125 19.1875 8.296875 
z
" id="DejaVuSans-50"/>
       </defs>
       <use xlink:href="#DejaVuSans-50"/>
       <use x="63.623047" xlink:href="#DejaVuSans-48"/>
      </g>
     </g>
    </g>
    <g id="xtick_3">
     <g id="line2d_3">
      <g>
       <use style="stroke:#000000;stroke-width:0.8;" x="562.230666" xlink:href="#mdb0173c5c9" y="442.594045"/>
      </g>
     </g>
     <g id="text_3">
      <!-- 40 -->
      <g transform="translate(527.873166 490.625607)scale(0.54 -0.54)">
       <defs>
        <path d="M 37.796875 64.3125 
L 12.890625 25.390625 
L 37.796875 25.390625 
z
M 35.203125 72.90625 
L 47.609375 72.90625 
L 47.609375 25.390625 
L 58.015625 25.390625 
L 58.015625 17.1875 
L 47.609375 17.1875 
L 47.609375 0 
L 37.796875 0 
L 37.796875 17.1875 
L 4.890625 17.1875 
L 4.890625 26.703125 
z
" id="DejaVuSans-52"/>
       </defs>
       <use xlink:href="#DejaVuSans-52"/>
       <use x="63.623047" xlink:href="#DejaVuSans-48"/>
      </g>
     </g>
    </g>
    <g id="text_4">
     <!-- Time (hr) -->
     <g transform="translate(210.093437 546.887482)scale(0.54 -0.54)">
      <defs>
       <path d="M -0.296875 72.90625 
L 61.375 72.90625 
L 61.375 64.59375 
L 35.5 64.59375 
L 35.5 0 
L 25.59375 0 
L 25.59375 64.59375 
L -0.296875 64.59375 
z
" id="DejaVuSans-84"/>
       <path d="M 9.421875 54.6875 
L 18.40625 54.6875 
L 18.40625 0 
L 9.421875 0 
z
M 9.421875 75.984375 
L 18.40625 75.984375 
L 18.40625 64.59375 
L 9.421875 64.59375 
z
" id="DejaVuSans-105"/>
       <path d="M 52 44.1875 
Q 55.375 50.25 60.0625 53.125 
Q 64.75 56 71.09375 56 
Q 79.640625 56 84.28125 50.015625 
Q 88.921875 44.046875 88.921875 33.015625 
L 88.921875 0 
L 79.890625 0 
L 79.890625 32.71875 
Q 79.890625 40.578125 77.09375 44.375 
Q 74.3125 48.1875 68.609375 48.1875 
Q 61.625 48.1875 57.5625 43.546875 
Q 53.515625 38.921875 53.515625 30.90625 
L 53.515625 0 
L 44.484375 0 
L 44.484375 32.71875 
Q 44.484375 40.625 41.703125 44.40625 
Q 38.921875 48.1875 33.109375 48.1875 
Q 26.21875 48.1875 22.15625 43.53125 
Q 18.109375 38.875 18.109375 30.90625 
L 18.109375 0 
L 9.078125 0 
L 9.078125 54.6875 
L 18.109375 54.6875 
L 18.109375 46.1875 
Q 21.1875 51.21875 25.484375 53.609375 
Q 29.78125 56 35.6875 56 
Q 41.65625 56 45.828125 52.96875 
Q 50 49.953125 52 44.1875 
z
" id="DejaVuSans-109"/>
       <path d="M 56.203125 29.59375 
L 56.203125 25.203125 
L 14.890625 25.203125 
Q 15.484375 15.921875 20.484375 11.0625 
Q 25.484375 6.203125 34.421875 6.203125 
Q 39.59375 6.203125 44.453125 7.46875 
Q 49.3125 8.734375 54.109375 11.28125 
L 54.109375 2.78125 
Q 49.265625 0.734375 44.1875 -0.34375 
Q 39.109375 -1.421875 33.890625 -1.421875 
Q 20.796875 -1.421875 13.15625 6.1875 
Q 5.515625 13.8125 5.515625 26.8125 
Q 5.515625 40.234375 12.765625 48.109375 
Q 20.015625 56 32.328125 56 
Q 43.359375 56 49.78125 48.890625 
Q 56.203125 41.796875 56.203125 29.59375 
z
M 47.21875 32.234375 
Q 47.125 39.59375 43.09375 43.984375 
Q 39.0625 48.390625 32.421875 48.390625 
Q 24.90625 48.390625 20.390625 44.140625 
Q 15.875 39.890625 15.1875 32.171875 
z
" id="DejaVuSans-101"/>
       <path id="DejaVuSans-32"/>
       <path d="M 31 75.875 
Q 24.46875 64.65625 21.28125 53.65625 
Q 18.109375 42.671875 18.109375 31.390625 
Q 18.109375 20.125 21.3125 9.0625 
Q 24.515625 -2 31 -13.1875 
L 23.1875 -13.1875 
Q 15.875 -1.703125 12.234375 9.375 
Q 8.59375 20.453125 8.59375 31.390625 
Q 8.59375 42.28125 12.203125 53.3125 
Q 15.828125 64.359375 23.1875 75.875 
z
" id="DejaVuSans-40"/>
       <path d="M 54.890625 33.015625 
L 54.890625 0 
L 45.90625 0 
L 45.90625 32.71875 
Q 45.90625 40.484375 42.875 44.328125 
Q 39.84375 48.1875 33.796875 48.1875 
Q 26.515625 48.1875 22.3125 43.546875 
Q 18.109375 38.921875 18.109375 30.90625 
L 18.109375 0 
L 9.078125 0 
L 9.078125 75.984375 
L 18.109375 75.984375 
L 18.109375 46.1875 
Q 21.34375 51.125 25.703125 53.5625 
Q 30.078125 56 35.796875 56 
Q 45.21875 56 50.046875 50.171875 
Q 54.890625 44.34375 54.890625 33.015625 
z
" id="DejaVuSans-104"/>
       <path d="M 41.109375 46.296875 
Q 39.59375 47.171875 37.8125 47.578125 
Q 36.03125 48 33.890625 48 
Q 26.265625 48 22.1875 43.046875 
Q 18.109375 38.09375 18.109375 28.8125 
L 18.109375 0 
L 9.078125 0 
L 9.078125 54.6875 
L 18.109375 54.6875 
L 18.109375 46.1875 
Q 20.953125 51.171875 25.484375 53.578125 
Q 30.03125 56 36.53125 56 
Q 37.453125 56 38.578125 55.875 
Q 39.703125 55.765625 41.0625 55.515625 
z
" id="DejaVuSans-114"/>
       <path d="M 8.015625 75.875 
L 15.828125 75.875 
Q 23.140625 64.359375 26.78125 53.3125 
Q 30.421875 42.28125 30.421875 31.390625 
Q 30.421875 20.453125 26.78125 9.375 
Q 23.140625 -1.703125 15.828125 -13.1875 
L 8.015625 -13.1875 
Q 14.5 -2 17.703125 9.0625 
Q 20.90625 20.125 20.90625 31.390625 
Q 20.90625 42.671875 17.703125 53.65625 
Q 14.5 64.65625 8.015625 75.875 
z
" id="DejaVuSans-41"/>
      </defs>
      <use xlink:href="#DejaVuSans-84"/>
      <use x="57.958984" xlink:href="#DejaVuSans-105"/>
      <use x="85.742188" xlink:href="#DejaVuSans-109"/>
      <use x="183.154297" xlink:href="#DejaVuSans-101"/>
      <use x="244.677734" xlink:href="#DejaVuSans-32"/>
      <use x="276.464844" xlink:href="#DejaVuSans-40"/>
      <use x="315.478516" xlink:href="#DejaVuSans-104"/>
      <use x="378.857422" xlink:href="#DejaVuSans-114"/>
      <use x="419.970703" xlink:href="#DejaVuSans-41"/>
     </g>
    </g>
   </g>
   <g id="matplotlib.axis_2">
    <g id="ytick_1">
     <g id="line2d_4">
      <defs>
       <path d="M 0 0 
L -3.5 0 
" id="mbd02b2abe7" style="stroke:#000000;stroke-width:0.8;"/>
      </defs>
      <g>
       <use style="stroke:#000000;stroke-width:0.8;" x="82.915" xlink:href="#mbd02b2abe7" y="427.750506"/>
      </g>
     </g>
     <g id="text_5">
      <!-- 0 -->
      <g transform="translate(41.5575 448.266288)scale(0.54 -0.54)">
       <use xlink:href="#DejaVuSans-48"/>
      </g>
     </g>
    </g>
    <g id="ytick_2">
     <g id="line2d_5">
      <g>
       <use style="stroke:#000000;stroke-width:0.8;" x="82.915" xlink:href="#mbd02b2abe7" y="227.733144"/>
      </g>
     </g>
     <g id="text_6">
      <!-- 20 -->
      <g transform="translate(7.2 248.248925)scale(0.54 -0.54)">
       <use xlink:href="#DejaVuSans-50"/>
       <use x="63.623047" xlink:href="#DejaVuSans-48"/>
      </g>
     </g>
    </g>
    <g id="ytick_3">
     <g id="line2d_6">
      <g>
       <use style="stroke:#000000;stroke-width:0.8;" x="82.915" xlink:href="#mbd02b2abe7" y="27.715781"/>
      </g>
     </g>
     <g id="text_7">
      <!-- 40 -->
      <g transform="translate(7.2 48.231562)scale(0.54 -0.54)">
       <use xlink:href="#DejaVuSans-52"/>
       <use x="63.623047" xlink:href="#DejaVuSans-48"/>
      </g>
     </g>
    </g>
   </g>
   <g id="line2d_7">
    <path clip-path="url(#pb75ac06f8a)" d="M 105.742273 427.750506 
L 117.154483 261.293557 
L 128.566692 196.627944 
L 139.978902 172.180822 
L 151.391112 163.487567 
L 162.803322 159.757243 
L 174.215532 157.622058 
L 185.627742 156.994503 
L 197.039951 154.294269 
L 208.452161 150.813967 
L 219.864371 149.403844 
L 231.276581 146.766115 
L 242.688791 142.975786 
L 254.101001 140.290553 
L 265.51321 140.213047 
L 276.92542 140.158042 
L 288.33763 140.078035 
L 299.74984 139.305468 
L 311.16205 139.993028 
L 322.57426 139.190458 
L 333.986469 140.48057 
L 345.398679 143.983374 
L 356.810889 145.448501 
L 368.223099 144.260898 
L 379.635309 142.935783 
L 391.047519 142.043206 
L 402.459728 140.443067 
L 413.871938 139.943023 
L 425.284148 139.462982 
L 436.696358 138.110364 
L 448.108568 137.737832 
L 459.520778 136.252703 
L 470.932988 134.95009 
L 482.345197 133.724983 
L 493.757407 132.519879 
L 505.169617 134.690067 
L 516.581827 135.30262 
L 527.994037 137.492811 
L 539.406247 136.79025 
L 550.818456 137.455307 
L 562.230666 137.492811 
" style="fill:none;stroke:#b7ff40;stroke-linecap:square;stroke-width:6;"/>
   </g>
   <g id="line2d_8">
    <defs>
     <path d="M 0 6 
C 1.591219 6 3.117479 5.367802 4.242641 4.242641 
C 5.367802 3.117479 6 1.591219 6 0 
C 6 -1.591219 5.367802 -3.117479 4.242641 -4.242641 
C 3.117479 -5.367802 1.591219 -6 0 -6 
C -1.591219 -6 -3.117479 -5.367802 -4.242641 -4.242641 
C -5.367802 -3.117479 -6 -1.591219 -6 0 
C -6 1.591219 -5.367802 3.117479 -4.242641 4.242641 
C -3.117479 5.367802 -1.591219 6 0 6 
z
" id="m58706c5b91" style="stroke:#b7ff40;"/>
    </defs>
    <g clip-path="url(#pb75ac06f8a)">
     <use style="fill:#b7ff40;stroke:#b7ff40;" x="105.799334" xlink:href="#m58706c5b91" y="427.255464"/>
     <use style="fill:#b7ff40;stroke:#b7ff40;" x="124.05887" xlink:href="#m58706c5b91" y="212.632833"/>
     <use style="fill:#b7ff40;stroke:#b7ff40;" x="142.318405" xlink:href="#m58706c5b91" y="166.906864"/>
     <use style="fill:#b7ff40;stroke:#b7ff40;" x="160.577941" xlink:href="#m58706c5b91" y="170.153146"/>
     <use style="fill:#b7ff40;stroke:#b7ff40;" x="178.837477" xlink:href="#m58706c5b91" y="167.3289"/>
     <use style="fill:#b7ff40;stroke:#b7ff40;" x="197.097012" xlink:href="#m58706c5b91" y="164.233632"/>
     <use style="fill:#b7ff40;stroke:#b7ff40;" x="215.356548" xlink:href="#m58706c5b91" y="157.590055"/>
     <use style="fill:#b7ff40;stroke:#b7ff40;" x="233.616084" xlink:href="#m58706c5b91" y="152.333599"/>
     <use style="fill:#b7ff40;stroke:#b7ff40;" x="251.87562" xlink:href="#m58706c5b91" y="148.100231"/>
     <use style="fill:#b7ff40;stroke:#b7ff40;" x="270.135155" xlink:href="#m58706c5b91" y="153.012658"/>
     <use style="fill:#b7ff40;stroke:#b7ff40;" x="288.394691" xlink:href="#m58706c5b91" y="150.61945"/>
     <use style="fill:#b7ff40;stroke:#b7ff40;" x="306.654227" xlink:href="#m58706c5b91" y="143.70985"/>
     <use style="fill:#b7ff40;stroke:#b7ff40;" x="324.913763" xlink:href="#m58706c5b91" y="143.106798"/>
     <use style="fill:#b7ff40;stroke:#b7ff40;" x="343.173298" xlink:href="#m58706c5b91" y="146.743113"/>
     <use style="fill:#b7ff40;stroke:#b7ff40;" x="361.432834" xlink:href="#m58706c5b91" y="146.442087"/>
     <use style="fill:#b7ff40;stroke:#b7ff40;" x="379.69237" xlink:href="#m58706c5b91" y="139.970526"/>
     <use style="fill:#b7ff40;stroke:#b7ff40;" x="397.951906" xlink:href="#m58706c5b91" y="141.837688"/>
     <use style="fill:#b7ff40;stroke:#b7ff40;" x="416.211441" xlink:href="#m58706c5b91" y="135.233114"/>
     <use style="fill:#b7ff40;stroke:#b7ff40;" x="434.470977" xlink:href="#m58706c5b91" y="138.154368"/>
     <use style="fill:#b7ff40;stroke:#b7ff40;" x="452.730513" xlink:href="#m58706c5b91" y="137.280292"/>
     <use style="fill:#b7ff40;stroke:#b7ff40;" x="470.990049" xlink:href="#m58706c5b91" y="140.105537"/>
     <use style="fill:#b7ff40;stroke:#b7ff40;" x="489.249584" xlink:href="#m58706c5b91" y="137.444306"/>
     <use style="fill:#b7ff40;stroke:#b7ff40;" x="507.50912" xlink:href="#m58706c5b91" y="136.439219"/>
     <use style="fill:#b7ff40;stroke:#b7ff40;" x="525.768656" xlink:href="#m58706c5b91" y="136.466221"/>
     <use style="fill:#b7ff40;stroke:#b7ff40;" x="544.028192" xlink:href="#m58706c5b91" y="137.60232"/>
     <use style="fill:#b7ff40;stroke:#b7ff40;" x="562.287727" xlink:href="#m58706c5b91" y="137.995354"/>
    </g>
   </g>
   <g id="line2d_9">
    <path clip-path="url(#pb75ac06f8a)" d="M 105.742273 427.750506 
L 117.154483 263.003706 
L 128.566692 196.385423 
L 139.978902 170.925713 
L 151.391112 163.912604 
L 162.803322 160.484806 
L 174.215532 158.634646 
L 185.627742 156.634472 
L 197.039951 156.901995 
L 208.452161 154.914323 
L 219.864371 152.201587 
L 231.276581 151.786551 
L 242.688791 151.038986 
L 254.101001 149.253831 
L 265.51321 146.506093 
L 276.92542 145.576012 
L 288.33763 140.935609 
L 299.74984 135.497637 
L 311.16205 134.83258 
L 322.57426 134.462547 
L 333.986469 133.557469 
L 345.398679 131.919827 
L 356.810889 133.267444 
L 368.223099 133.047425 
L 379.635309 131.509791 
L 391.047519 133.714983 
L 402.459728 133.272444 
L 413.871938 134.922587 
L 425.284148 136.210199 
L 436.696358 135.630149 
L 448.108568 133.935002 
L 459.520778 135.287619 
L 470.932988 137.017769 
L 482.345197 139.950524 
L 493.757407 137.360299 
L 505.169617 138.187871 
L 516.581827 141.625669 
L 527.994037 140.235549 
L 539.406247 138.455394 
L 550.818456 137.017769 
L 562.230666 135.780162 
" style="fill:none;stroke:#ff3000;stroke-linecap:square;stroke-width:6;"/>
   </g>
   <g id="line2d_10">
    <defs>
     <path d="M 0 6 
C 1.591219 6 3.117479 5.367802 4.242641 4.242641 
C 5.367802 3.117479 6 1.591219 6 0 
C 6 -1.591219 5.367802 -3.117479 4.242641 -4.242641 
C 3.117479 -5.367802 1.591219 -6 0 -6 
C -1.591219 -6 -3.117479 -5.367802 -4.242641 -4.242641 
C -5.367802 -3.117479 -6 -1.591219 -6 0 
C -6 1.591219 -5.367802 3.117479 -4.242641 4.242641 
C -3.117479 5.367802 -1.591219 6 0 6 
z
" id="m1992c0337b" style="stroke:#ff3000;"/>
    </defs>
    <g clip-path="url(#pb75ac06f8a)">
     <use style="fill:#ff3000;stroke:#ff3000;" x="105.799334" xlink:href="#m1992c0337b" y="427.277465"/>
     <use style="fill:#ff3000;stroke:#ff3000;" x="124.05887" xlink:href="#m1992c0337b" y="209.608571"/>
     <use style="fill:#ff3000;stroke:#ff3000;" x="142.318405" xlink:href="#m1992c0337b" y="160.398299"/>
     <use style="fill:#ff3000;stroke:#ff3000;" x="160.577941" xlink:href="#m1992c0337b" y="145.66402"/>
     <use style="fill:#ff3000;stroke:#ff3000;" x="178.837477" xlink:href="#m1992c0337b" y="153.670715"/>
     <use style="fill:#ff3000;stroke:#ff3000;" x="197.097012" xlink:href="#m1992c0337b" y="147.778203"/>
     <use style="fill:#ff3000;stroke:#ff3000;" x="215.356548" xlink:href="#m1992c0337b" y="145.459002"/>
     <use style="fill:#ff3000;stroke:#ff3000;" x="233.616084" xlink:href="#m1992c0337b" y="145.271986"/>
     <use style="fill:#ff3000;stroke:#ff3000;" x="251.87562" xlink:href="#m1992c0337b" y="141.803685"/>
     <use style="fill:#ff3000;stroke:#ff3000;" x="270.135155" xlink:href="#m1992c0337b" y="138.545402"/>
     <use style="fill:#ff3000;stroke:#ff3000;" x="288.394691" xlink:href="#m1992c0337b" y="138.133366"/>
     <use style="fill:#ff3000;stroke:#ff3000;" x="306.654227" xlink:href="#m1992c0337b" y="138.326383"/>
     <use style="fill:#ff3000;stroke:#ff3000;" x="324.913763" xlink:href="#m1992c0337b" y="135.52614"/>
     <use style="fill:#ff3000;stroke:#ff3000;" x="343.173298" xlink:href="#m1992c0337b" y="133.041924"/>
     <use style="fill:#ff3000;stroke:#ff3000;" x="361.432834" xlink:href="#m1992c0337b" y="130.879736"/>
     <use style="fill:#ff3000;stroke:#ff3000;" x="379.69237" xlink:href="#m1992c0337b" y="131.913826"/>
     <use style="fill:#ff3000;stroke:#ff3000;" x="397.951906" xlink:href="#m1992c0337b" y="136.155194"/>
     <use style="fill:#ff3000;stroke:#ff3000;" x="416.211441" xlink:href="#m1992c0337b" y="138.645411"/>
     <use style="fill:#ff3000;stroke:#ff3000;" x="434.470977" xlink:href="#m1992c0337b" y="140.191545"/>
     <use style="fill:#ff3000;stroke:#ff3000;" x="452.730513" xlink:href="#m1992c0337b" y="137.071274"/>
     <use style="fill:#ff3000;stroke:#ff3000;" x="470.990049" xlink:href="#m1992c0337b" y="137.857342"/>
     <use style="fill:#ff3000;stroke:#ff3000;" x="489.249584" xlink:href="#m1992c0337b" y="135.316122"/>
     <use style="fill:#ff3000;stroke:#ff3000;" x="507.50912" xlink:href="#m1992c0337b" y="143.746853"/>
     <use style="fill:#ff3000;stroke:#ff3000;" x="525.768656" xlink:href="#m1992c0337b" y="149.00531"/>
     <use style="fill:#ff3000;stroke:#ff3000;" x="544.028192" xlink:href="#m1992c0337b" y="140.907607"/>
     <use style="fill:#ff3000;stroke:#ff3000;" x="562.287727" xlink:href="#m1992c0337b" y="138.283379"/>
    </g>
   </g>
   <g id="patch_3">
    <path d="M 82.915 442.594045 
L 82.915 7.714045 
" style="fill:none;stroke:#000000;stroke-linecap:square;stroke-linejoin:miter;stroke-width:0.8;"/>
   </g>
   <g id="patch_4">
    <path d="M 585.115 442.594045 
L 585.115 7.714045 
" style="fill:none;stroke:#000000;stroke-linecap:square;stroke-linejoin:miter;stroke-width:0.8;"/>
   </g>
   <g id="patch_5">
    <path d="M 82.915 442.594045 
L 585.115 442.594045 
" style="fill:none;stroke:#000000;stroke-linecap:square;stroke-linejoin:miter;stroke-width:0.8;"/>
   </g>
   <g id="patch_6">
    <path d="M 82.915 7.714045 
L 585.115 7.714045 
" style="fill:none;stroke:#000000;stroke-linecap:square;stroke-linejoin:miter;stroke-width:0.8;"/>
   </g>
   <g id="legend_1">
    <g id="patch_7">
     <path d="M 350.215 415.594045 
L 547.315 415.594045 
Q 558.115 415.594045 558.115 404.794045 
L 558.115 246.160607 
Q 558.115 235.360607 547.315 235.360607 
L 350.215 235.360607 
Q 339.415 235.360607 339.415 246.160607 
L 339.415 404.794045 
Q 339.415 415.594045 350.215 415.594045 
z
" style="fill:#ffffff;opacity:0.8;stroke:#cccccc;stroke-linejoin:miter;"/>
    </g>
    <g id="line2d_11">
     <path d="M 377.215 279.09217 
L 452.815 279.09217 
" style="fill:none;stroke:#b7ff40;stroke-linecap:square;stroke-width:6;"/>
    </g>
    <g id="line2d_12"/>
    <g id="text_8">
     <!-- $P_y$ -->
     <g transform="translate(479.815 297.99217)scale(0.54 -0.54)">
      <defs>
       <path d="M 16.890625 72.90625 
L 39.703125 72.90625 
Q 49.65625 72.90625 54.875 68.265625 
Q 60.109375 63.625 60.109375 54.6875 
Q 60.109375 42.671875 52.390625 35.984375 
Q 44.671875 29.296875 30.71875 29.296875 
L 18.3125 29.296875 
L 12.59375 0 
L 2.6875 0 
z
M 25.203125 64.796875 
L 19.921875 37.40625 
L 32.328125 37.40625 
Q 40.71875 37.40625 45.203125 41.703125 
Q 49.703125 46 49.703125 54 
Q 49.703125 59.125 46.65625 61.953125 
Q 43.609375 64.796875 38.09375 64.796875 
z
" id="DejaVuSans-Oblique-80"/>
       <path d="M 24.8125 -5.078125 
Q 18.5625 -15.578125 14.625 -18.1875 
Q 10.6875 -20.796875 4.59375 -20.796875 
L -2.484375 -20.796875 
L -0.984375 -13.28125 
L 4.203125 -13.28125 
Q 7.953125 -13.28125 10.59375 -11.234375 
Q 13.234375 -9.1875 16.5 -3.21875 
L 19.28125 2 
L 7.171875 54.6875 
L 16.703125 54.6875 
L 25.78125 12.796875 
L 50.875 54.6875 
L 60.296875 54.6875 
z
" id="DejaVuSans-Oblique-121"/>
      </defs>
      <use transform="translate(0 0.09375)" xlink:href="#DejaVuSans-Oblique-80"/>
      <use transform="translate(60.302734 -16.3125)scale(0.7)" xlink:href="#DejaVuSans-Oblique-121"/>
     </g>
    </g>
    <g id="line2d_13">
     <path d="M 377.215 363.863732 
L 452.815 363.863732 
" style="fill:none;stroke:#ff3000;stroke-linecap:square;stroke-width:6;"/>
    </g>
    <g id="line2d_14"/>
    <g id="text_9">
     <!-- $P_x$ -->
     <g transform="translate(479.815 382.763732)scale(0.54 -0.54)">
      <defs>
       <path d="M 60.015625 54.6875 
L 34.90625 27.875 
L 50.296875 0 
L 39.984375 0 
L 28.421875 21.6875 
L 8.296875 0 
L -2.59375 0 
L 24.3125 28.8125 
L 10.015625 54.6875 
L 20.3125 54.6875 
L 30.8125 34.90625 
L 49.125 54.6875 
z
" id="DejaVuSans-Oblique-120"/>
      </defs>
      <use transform="translate(0 0.09375)" xlink:href="#DejaVuSans-Oblique-80"/>
      <use transform="translate(60.302734 -16.3125)scale(0.7)" xlink:href="#DejaVuSans-Oblique-120"/>
     </g>
    </g>
   </g>
  </g>
 </g>
 <defs>
  <clipPath id="pb75ac06f8a">
   <rect height="434.88" width="502.2" x="82.915" y="7.714045"/>
  </clipPath>
 </defs>
</svg>
