<svg width="186" height="169" xmlns="http://www.w3.org/2000/svg" xmlns:xlink="http://www.w3.org/1999/xlink" overflow="hidden"><defs><clipPath id="clip0"><rect x="32" y="199" width="186" height="169"/></clipPath></defs><g clip-path="url(#clip0)" transform="translate(-32 -199)"><path d="M49.5001 274.333C49.5001 271.664 51.6641 269.5 54.3335 269.5L75.6666 269.5C78.336 269.5 80.5001 271.664 80.5001 274.333L80.5001 293.667C80.5001 296.336 78.336 298.5 75.6666 298.5L54.3335 298.5C51.6641 298.5 49.5001 296.336 49.5001 293.667Z" stroke="#000070" stroke-miterlimit="8" stroke-opacity="0.101961" fill="#000083" fill-rule="evenodd" fill-opacity="0.619608"/><text font-family="Cambria Math,Cambria Math_MSFontService,sans-serif" font-weight="400" font-size="17" transform="translate(57.1443 289)">洧냨<tspan font-size="12" x="11" y="3">洧논</tspan></text><path d="M65.0667 267.986 65.0667 243.067 83.5866 243.067 83.5866 244.933 66 244.933 66.9333 244 66.9333 267.986ZM82.2532 240 90.2532 244 82.2532 248Z"/><path d="M165.5 274.333C165.5 271.664 167.664 269.5 170.333 269.5L191.667 269.5C194.336 269.5 196.5 271.664 196.5 274.333L196.5 293.667C196.5 296.336 194.336 298.5 191.667 298.5L170.333 298.5C167.664 298.5 165.5 296.336 165.5 293.667Z" stroke="#000070" stroke-miterlimit="8" stroke-opacity="0.101961" fill="#0058FF" fill-rule="evenodd" fill-opacity="0.619608"/><text font-family="Cambria Math,Cambria Math_MSFontService,sans-serif" font-weight="400" font-size="17" transform="translate(173.336 289)">洧냨<tspan font-size="12" x="11" y="3">洧녽</tspan></text><path d="M118 244 138.843 244 138.843 246 118 246ZM137.51 241 145.51 245 137.51 249Z"/><text font-family="Cambria Math,Cambria Math_MSFontService,sans-serif" font-weight="400" font-size="17" transform="translate(148.145 250)">칒</text><path d="M91.5001 235C91.5001 232.515 93.5148 230.5 96.0001 230.5L114 230.5C116.485 230.5 118.5 232.515 118.5 235L118.5 255C118.5 257.485 116.485 259.5 114 259.5L96.0001 259.5C93.5148 259.5 91.5001 257.485 91.5001 255Z" stroke="#FF7F61" stroke-miterlimit="8" stroke-opacity="0.101961" fill="#FF7F61" fill-rule="evenodd"/><text font-family="Cambria Math,Cambria Math_MSFontService,sans-serif" font-weight="400" font-size="17" transform="translate(98.0633 250)">洧녞<tspan font-size="12" x="10.6667" y="3">x</tspan></text><path d="M165.5 212.833C165.5 210.44 167.44 208.5 169.833 208.5L187.167 208.5C189.56 208.5 191.5 210.44 191.5 212.833L191.5 233.167C191.5 235.56 189.56 237.5 187.167 237.5L169.833 237.5C167.44 237.5 165.5 235.56 165.5 233.167Z" stroke="#FF7F61" stroke-miterlimit="8" stroke-opacity="0.101961" fill="#FF7F61" fill-rule="evenodd" fill-opacity="0.619608"/><path d="M171.5 205.833C171.5 203.44 173.44 201.5 175.833 201.5L193.167 201.5C195.56 201.5 197.5 203.44 197.5 205.833L197.5 226.167C197.5 228.56 195.56 230.5 193.167 230.5L175.833 230.5C173.44 230.5 171.5 228.56 171.5 226.167Z" stroke="#FF7F61" stroke-miterlimit="8" stroke-opacity="0.101961" fill="#FF7F61" fill-rule="evenodd"/><text font-family="Cambria Math,Cambria Math_MSFontService,sans-serif" font-weight="400" font-size="17" transform="translate(177.67 220)">洧녞<tspan font-size="12" x="10.6667" y="3">x</tspan></text><path d="M180 240 180 263.635" stroke="#000000" stroke-width="1.93333" stroke-miterlimit="8" fill="none" fill-rule="evenodd"/><path d="M182.894 298 182.894 323.903 164.667 323.903 164.667 322.036 181.96 322.036 181.027 322.969 181.027 298ZM166 326.969 158 322.969 166 318.969Z"/><path d="M131.51 324 110.667 324 110.667 322 131.51 322ZM112 327 104 323 112 319Z"/><text font-family="Cambria Math,Cambria Math_MSFontService,sans-serif" font-weight="400" font-size="17" transform="translate(88.2107 328)">칒</text><path d="M158.5 333.167C158.5 335.56 156.56 337.5 154.167 337.5L136.833 337.5C134.44 337.5 132.5 335.56 132.5 333.167L132.5 313.833C132.5 311.44 134.44 309.5 136.833 309.5L154.167 309.5C156.56 309.5 158.5 311.44 158.5 313.833Z" stroke="#DBF652" stroke-miterlimit="8" stroke-opacity="0.101961" fill="#DBF652" fill-rule="evenodd"/><text font-family="Cambria Math,Cambria Math_MSFontService,sans-serif" font-weight="400" font-size="17" transform="translate(138.42 328)">洧녞<tspan font-size="12" x="10.6667" y="3">洧녽</tspan></text><path d="M0 0 11.1444 0.000104987" stroke="#000000" stroke-width="1.93333" stroke-miterlimit="8" fill="none" fill-rule="evenodd" transform="matrix(-1 0 0 1 186.144 264)"/><path d="M48.5001 342.833C48.5001 340.44 50.4402 338.5 52.8335 338.5L70.1666 338.5C72.5599 338.5 74.5001 340.44 74.5001 342.833L74.5001 363.167C74.5001 365.56 72.5599 367.5 70.1666 367.5L52.8335 367.5C50.4402 367.5 48.5001 365.56 48.5001 363.167Z" stroke="#DBF652" stroke-miterlimit="8" stroke-opacity="0.101961" fill="#DBF652" fill-rule="evenodd" fill-opacity="0.341176"/><path d="M56.5001 335.833C56.5001 333.44 58.4402 331.5 60.8335 331.5L78.1666 331.5C80.5599 331.5 82.5001 333.44 82.5001 335.833L82.5001 356.167C82.5001 358.56 80.5599 360.5 78.1666 360.5L60.8335 360.5C58.4402 360.5 56.5001 358.56 56.5001 356.167Z" stroke="#BAFE49" stroke-miterlimit="8" stroke-opacity="0.101961" fill="#DBF652" fill-rule="evenodd"/><text font-family="Cambria Math,Cambria Math_MSFontService,sans-serif" font-weight="400" font-size="17" transform="translate(61.9773 350)">洧녞<tspan font-size="12" x="10.6667" y="3">洧녽</tspan></text><path d="M0 0 0.000104987 24.038" stroke="#000000" stroke-width="1.93333" stroke-miterlimit="8" fill="none" fill-rule="evenodd" transform="matrix(1 0 0 -1 65 328.038)"/><path d="M0 0 11.1444 0.000104987" stroke="#000000" stroke-width="1.93333" stroke-miterlimit="8" fill="none" fill-rule="evenodd" transform="matrix(1 -1.22465e-16 -1.22465e-16 -1 60 304)"/><text font-family="Cambria Math,Cambria Math_MSFontService,sans-serif" font-weight="400" font-size="17" transform="translate(46.5095 257)">洧<tspan font-size="12" x="8" y="3">洧논</tspan><tspan font-size="17" x="143.147" y="58">洧</tspan><tspan font-size="12" x="151.147" y="61">洧녽</tspan><tspan font-size="17" x="76.5534" y="-22">洧녬</tspan><tspan font-size="12" x="86.5534" y="-19">洧논</tspan><tspan font-size="17" x="64.6139" y="55">洧녬</tspan><tspan font-size="12" x="74.6139" y="58">洧녽</tspan><tspan font-size="17" x="142.115" y="-2">洧녪</tspan><tspan font-size="12" x="151.448" y="1">洧녽</tspan><tspan font-size="17" x="-1.54142" y="63">洧녪</tspan><tspan font-size="12" x="7.79192" y="66">洧논</tspan></text></g></svg>