<?xml version="1.0" encoding="utf-8" standalone="no"?>
<!DOCTYPE svg PUBLIC "-//W3C//DTD SVG 1.1//EN"
  "http://www.w3.org/Graphics/SVG/1.1/DTD/svg11.dtd">
<!-- Created with matplotlib (https://matplotlib.org/) -->
<svg height="633.712pt" version="1.1" viewBox="0 0 670.855 633.712" width="670.855pt" xmlns="http://www.w3.org/2000/svg" xmlns:xlink="http://www.w3.org/1999/xlink">
 <metadata>
  <rdf:RDF xmlns:cc="http://creativecommons.org/ns#" xmlns:dc="http://purl.org/dc/elements/1.1/" xmlns:rdf="http://www.w3.org/1999/02/22-rdf-syntax-ns#">
   <cc:Work>
    <dc:type rdf:resource="http://purl.org/dc/dcmitype/StillImage"/>
    <dc:date>2022-09-24T16:49:21.817482</dc:date>
    <dc:format>image/svg+xml</dc:format>
    <dc:creator>
     <cc:Agent>
      <dc:title>Matplotlib v3.3.4, https://matplotlib.org/</dc:title>
     </cc:Agent>
    </dc:creator>
   </cc:Work>
  </rdf:RDF>
 </metadata>
 <defs>
  <style type="text/css">*{stroke-linecap:butt;stroke-linejoin:round;}</style>
 </defs>
 <g id="figure_1">
  <g id="patch_1">
   <path d="M 0 633.712 
L 670.855 633.712 
L 670.855 0 
L 0 0 
z
" style="fill:#ffffff;"/>
  </g>
  <g id="axes_1">
   <g id="patch_2">
    <path d="M 161.455 507.117 
L 663.655 507.117 
L 663.655 72.237 
L 161.455 72.237 
z
" style="fill:#ffffff;"/>
   </g>
   <g id="matplotlib.axis_1">
    <g id="xtick_1">
     <g id="line2d_1">
      <defs>
       <path d="M 0 0 
L 0 3.5 
" id="mf6676bce22" style="stroke:#000000;stroke-width:0.8;"/>
      </defs>
      <g>
       <use style="stroke:#000000;stroke-width:0.8;" x="184.282273" xlink:href="#mf6676bce22" y="507.117"/>
      </g>
     </g>
     <g id="text_1">
      <!-- 0 -->
      <g transform="translate(166.467273 556.66825)scale(0.56 -0.56)">
       <defs>
        <path d="M 31.78125 66.40625 
Q 24.171875 66.40625 20.328125 58.90625 
Q 16.5 51.421875 16.5 36.375 
Q 16.5 21.390625 20.328125 13.890625 
Q 24.171875 6.390625 31.78125 6.390625 
Q 39.453125 6.390625 43.28125 13.890625 
Q 47.125 21.390625 47.125 36.375 
Q 47.125 51.421875 43.28125 58.90625 
Q 39.453125 66.40625 31.78125 66.40625 
z
M 31.78125 74.21875 
Q 44.046875 74.21875 50.515625 64.515625 
Q 56.984375 54.828125 56.984375 36.375 
Q 56.984375 17.96875 50.515625 8.265625 
Q 44.046875 -1.421875 31.78125 -1.421875 
Q 19.53125 -1.421875 13.0625 8.265625 
Q 6.59375 17.96875 6.59375 36.375 
Q 6.59375 54.828125 13.0625 64.515625 
Q 19.53125 74.21875 31.78125 74.21875 
z
" id="DejaVuSans-48"/>
       </defs>
       <use xlink:href="#DejaVuSans-48"/>
      </g>
     </g>
    </g>
    <g id="xtick_2">
     <g id="line2d_2">
      <g>
       <use style="stroke:#000000;stroke-width:0.8;" x="640.827727" xlink:href="#mf6676bce22" y="507.117"/>
      </g>
     </g>
     <g id="text_2">
      <!-- 1 -->
      <g transform="translate(623.012727 556.66825)scale(0.56 -0.56)">
       <defs>
        <path d="M 12.40625 8.296875 
L 28.515625 8.296875 
L 28.515625 63.921875 
L 10.984375 60.40625 
L 10.984375 69.390625 
L 28.421875 72.90625 
L 38.28125 72.90625 
L 38.28125 8.296875 
L 54.390625 8.296875 
L 54.390625 0 
L 12.40625 0 
z
" id="DejaVuSans-49"/>
       </defs>
       <use xlink:href="#DejaVuSans-49"/>
      </g>
     </g>
    </g>
    <g id="text_3">
     <!-- Gillespie -->
     <g transform="translate(292.925 614.86575)scale(0.56 -0.56)">
      <defs>
       <path d="M 59.515625 10.40625 
L 59.515625 29.984375 
L 43.40625 29.984375 
L 43.40625 38.09375 
L 69.28125 38.09375 
L 69.28125 6.78125 
Q 63.578125 2.734375 56.6875 0.65625 
Q 49.8125 -1.421875 42 -1.421875 
Q 24.90625 -1.421875 15.25 8.5625 
Q 5.609375 18.5625 5.609375 36.375 
Q 5.609375 54.25 15.25 64.234375 
Q 24.90625 74.21875 42 74.21875 
Q 49.125 74.21875 55.546875 72.453125 
Q 61.96875 70.703125 67.390625 67.28125 
L 67.390625 56.78125 
Q 61.921875 61.421875 55.765625 63.765625 
Q 49.609375 66.109375 42.828125 66.109375 
Q 29.4375 66.109375 22.71875 58.640625 
Q 16.015625 51.171875 16.015625 36.375 
Q 16.015625 21.625 22.71875 14.15625 
Q 29.4375 6.6875 42.828125 6.6875 
Q 48.046875 6.6875 52.140625 7.59375 
Q 56.25 8.5 59.515625 10.40625 
z
" id="DejaVuSans-71"/>
       <path d="M 9.421875 54.6875 
L 18.40625 54.6875 
L 18.40625 0 
L 9.421875 0 
z
M 9.421875 75.984375 
L 18.40625 75.984375 
L 18.40625 64.59375 
L 9.421875 64.59375 
z
" id="DejaVuSans-105"/>
       <path d="M 9.421875 75.984375 
L 18.40625 75.984375 
L 18.40625 0 
L 9.421875 0 
z
" id="DejaVuSans-108"/>
       <path d="M 56.203125 29.59375 
L 56.203125 25.203125 
L 14.890625 25.203125 
Q 15.484375 15.921875 20.484375 11.0625 
Q 25.484375 6.203125 34.421875 6.203125 
Q 39.59375 6.203125 44.453125 7.46875 
Q 49.3125 8.734375 54.109375 11.28125 
L 54.109375 2.78125 
Q 49.265625 0.734375 44.1875 -0.34375 
Q 39.109375 -1.421875 33.890625 -1.421875 
Q 20.796875 -1.421875 13.15625 6.1875 
Q 5.515625 13.8125 5.515625 26.8125 
Q 5.515625 40.234375 12.765625 48.109375 
Q 20.015625 56 32.328125 56 
Q 43.359375 56 49.78125 48.890625 
Q 56.203125 41.796875 56.203125 29.59375 
z
M 47.21875 32.234375 
Q 47.125 39.59375 43.09375 43.984375 
Q 39.0625 48.390625 32.421875 48.390625 
Q 24.90625 48.390625 20.390625 44.140625 
Q 15.875 39.890625 15.1875 32.171875 
z
" id="DejaVuSans-101"/>
       <path d="M 44.28125 53.078125 
L 44.28125 44.578125 
Q 40.484375 46.53125 36.375 47.5 
Q 32.28125 48.484375 27.875 48.484375 
Q 21.1875 48.484375 17.84375 46.4375 
Q 14.5 44.390625 14.5 40.28125 
Q 14.5 37.15625 16.890625 35.375 
Q 19.28125 33.59375 26.515625 31.984375 
L 29.59375 31.296875 
Q 39.15625 29.25 43.1875 25.515625 
Q 47.21875 21.78125 47.21875 15.09375 
Q 47.21875 7.46875 41.1875 3.015625 
Q 35.15625 -1.421875 24.609375 -1.421875 
Q 20.21875 -1.421875 15.453125 -0.5625 
Q 10.6875 0.296875 5.421875 2 
L 5.421875 11.28125 
Q 10.40625 8.6875 15.234375 7.390625 
Q 20.0625 6.109375 24.8125 6.109375 
Q 31.15625 6.109375 34.5625 8.28125 
Q 37.984375 10.453125 37.984375 14.40625 
Q 37.984375 18.0625 35.515625 20.015625 
Q 33.0625 21.96875 24.703125 23.78125 
L 21.578125 24.515625 
Q 13.234375 26.265625 9.515625 29.90625 
Q 5.8125 33.546875 5.8125 39.890625 
Q 5.8125 47.609375 11.28125 51.796875 
Q 16.75 56 26.8125 56 
Q 31.78125 56 36.171875 55.265625 
Q 40.578125 54.546875 44.28125 53.078125 
z
" id="DejaVuSans-115"/>
       <path d="M 18.109375 8.203125 
L 18.109375 -20.796875 
L 9.078125 -20.796875 
L 9.078125 54.6875 
L 18.109375 54.6875 
L 18.109375 46.390625 
Q 20.953125 51.265625 25.265625 53.625 
Q 29.59375 56 35.59375 56 
Q 45.5625 56 51.78125 48.09375 
Q 58.015625 40.1875 58.015625 27.296875 
Q 58.015625 14.40625 51.78125 6.484375 
Q 45.5625 -1.421875 35.59375 -1.421875 
Q 29.59375 -1.421875 25.265625 0.953125 
Q 20.953125 3.328125 18.109375 8.203125 
z
M 48.6875 27.296875 
Q 48.6875 37.203125 44.609375 42.84375 
Q 40.53125 48.484375 33.40625 48.484375 
Q 26.265625 48.484375 22.1875 42.84375 
Q 18.109375 37.203125 18.109375 27.296875 
Q 18.109375 17.390625 22.1875 11.75 
Q 26.265625 6.109375 33.40625 6.109375 
Q 40.53125 6.109375 44.609375 11.75 
Q 48.6875 17.390625 48.6875 27.296875 
z
" id="DejaVuSans-112"/>
      </defs>
      <use xlink:href="#DejaVuSans-71"/>
      <use x="77.490234" xlink:href="#DejaVuSans-105"/>
      <use x="105.273438" xlink:href="#DejaVuSans-108"/>
      <use x="133.056641" xlink:href="#DejaVuSans-108"/>
      <use x="160.839844" xlink:href="#DejaVuSans-101"/>
      <use x="222.363281" xlink:href="#DejaVuSans-115"/>
      <use x="274.462891" xlink:href="#DejaVuSans-112"/>
      <use x="337.939453" xlink:href="#DejaVuSans-105"/>
      <use x="365.722656" xlink:href="#DejaVuSans-101"/>
     </g>
    </g>
   </g>
   <g id="matplotlib.axis_2">
    <g id="ytick_1">
     <g id="line2d_3">
      <defs>
       <path d="M 0 0 
L -3.5 0 
" id="m25e085318d" style="stroke:#000000;stroke-width:0.8;"/>
      </defs>
      <g>
       <use style="stroke:#000000;stroke-width:0.8;" x="161.455" xlink:href="#m25e085318d" y="487.349727"/>
      </g>
     </g>
     <g id="text_4">
      <!-- 0.0 -->
      <g transform="translate(65.3975 508.625352)scale(0.56 -0.56)">
       <defs>
        <path d="M 10.6875 12.40625 
L 21 12.40625 
L 21 0 
L 10.6875 0 
z
" id="DejaVuSans-46"/>
       </defs>
       <use xlink:href="#DejaVuSans-48"/>
       <use x="63.623047" xlink:href="#DejaVuSans-46"/>
       <use x="95.410156" xlink:href="#DejaVuSans-48"/>
      </g>
     </g>
    </g>
    <g id="ytick_2">
     <g id="line2d_4">
      <g>
       <use style="stroke:#000000;stroke-width:0.8;" x="161.455" xlink:href="#m25e085318d" y="289.677"/>
      </g>
     </g>
     <g id="text_5">
      <!-- 0.5 -->
      <g transform="translate(65.3975 310.952625)scale(0.56 -0.56)">
       <defs>
        <path d="M 10.796875 72.90625 
L 49.515625 72.90625 
L 49.515625 64.59375 
L 19.828125 64.59375 
L 19.828125 46.734375 
Q 21.96875 47.46875 24.109375 47.828125 
Q 26.265625 48.1875 28.421875 48.1875 
Q 40.625 48.1875 47.75 41.5 
Q 54.890625 34.8125 54.890625 23.390625 
Q 54.890625 11.625 47.5625 5.09375 
Q 40.234375 -1.421875 26.90625 -1.421875 
Q 22.3125 -1.421875 17.546875 -0.640625 
Q 12.796875 0.140625 7.71875 1.703125 
L 7.71875 11.625 
Q 12.109375 9.234375 16.796875 8.0625 
Q 21.484375 6.890625 26.703125 6.890625 
Q 35.15625 6.890625 40.078125 11.328125 
Q 45.015625 15.765625 45.015625 23.390625 
Q 45.015625 31 40.078125 35.4375 
Q 35.15625 39.890625 26.703125 39.890625 
Q 22.75 39.890625 18.8125 39.015625 
Q 14.890625 38.140625 10.796875 36.28125 
z
" id="DejaVuSans-53"/>
       </defs>
       <use xlink:href="#DejaVuSans-48"/>
       <use x="63.623047" xlink:href="#DejaVuSans-46"/>
       <use x="95.410156" xlink:href="#DejaVuSans-53"/>
      </g>
     </g>
    </g>
    <g id="ytick_3">
     <g id="line2d_5">
      <g>
       <use style="stroke:#000000;stroke-width:0.8;" x="161.455" xlink:href="#m25e085318d" y="92.004273"/>
      </g>
     </g>
     <g id="text_6">
      <!-- 1.0 -->
      <g transform="translate(65.3975 113.279898)scale(0.56 -0.56)">
       <use xlink:href="#DejaVuSans-49"/>
       <use x="63.623047" xlink:href="#DejaVuSans-46"/>
       <use x="95.410156" xlink:href="#DejaVuSans-48"/>
      </g>
     </g>
    </g>
    <g id="text_7">
     <!-- VAN -->
     <g transform="translate(49.75125 347.147)rotate(-90)scale(0.56 -0.56)">
      <defs>
       <path d="M 28.609375 0 
L 0.78125 72.90625 
L 11.078125 72.90625 
L 34.1875 11.53125 
L 57.328125 72.90625 
L 67.578125 72.90625 
L 39.796875 0 
z
" id="DejaVuSans-86"/>
       <path d="M 34.1875 63.1875 
L 20.796875 26.90625 
L 47.609375 26.90625 
z
M 28.609375 72.90625 
L 39.796875 72.90625 
L 67.578125 0 
L 57.328125 0 
L 50.6875 18.703125 
L 17.828125 18.703125 
L 11.1875 0 
L 0.78125 0 
z
" id="DejaVuSans-65"/>
       <path d="M 9.8125 72.90625 
L 23.09375 72.90625 
L 55.421875 11.921875 
L 55.421875 72.90625 
L 64.984375 72.90625 
L 64.984375 0 
L 51.703125 0 
L 19.390625 60.984375 
L 19.390625 0 
L 9.8125 0 
z
" id="DejaVuSans-78"/>
      </defs>
      <use xlink:href="#DejaVuSans-86"/>
      <use x="62.033203" xlink:href="#DejaVuSans-65"/>
      <use x="130.441406" xlink:href="#DejaVuSans-78"/>
     </g>
    </g>
   </g>
   <g id="line2d_6">
    <defs>
     <path d="M 0 10 
C 2.652031 10 5.195799 8.946337 7.071068 7.071068 
C 8.946337 5.195799 10 2.652031 10 0 
C 10 -2.652031 8.946337 -5.195799 7.071068 -7.071068 
C 5.195799 -8.946337 2.652031 -10 0 -10 
C -2.652031 -10 -5.195799 -8.946337 -7.071068 -7.071068 
C -8.946337 -5.195799 -10 -2.652031 -10 0 
C -10 2.652031 -8.946337 5.195799 -7.071068 7.071068 
C -5.195799 8.946337 -2.652031 10 0 10 
z
" id="m13f33d0500" style="stroke:#000080;"/>
    </defs>
    <g clip-path="url(#p6931bf4e96)">
     <use style="fill:#000080;stroke:#000080;" x="412.555" xlink:href="#m13f33d0500" y="289.677194"/>
    </g>
   </g>
   <g id="line2d_7">
    <defs>
     <path d="M 0 10 
C 2.652031 10 5.195799 8.946337 7.071068 7.071068 
C 8.946337 5.195799 10 2.652031 10 0 
C 10 -2.652031 8.946337 -5.195799 7.071068 -7.071068 
C 5.195799 -8.946337 2.652031 -10 0 -10 
C -2.652031 -10 -5.195799 -8.946337 -7.071068 -7.071068 
C -8.946337 -5.195799 -10 -2.652031 -10 0 
C -10 2.652031 -8.946337 5.195799 -7.071068 7.071068 
C -5.195799 8.946337 -2.652031 10 0 10 
z
" id="mfcb4dce445" style="stroke:#000080;stroke-opacity:0.974615;"/>
    </defs>
    <g clip-path="url(#p6931bf4e96)">
     <use style="fill:#000080;fill-opacity:0.974615;stroke:#000080;stroke-opacity:0.974615;" x="412.157345" xlink:href="#mfcb4dce445" y="290.216041"/>
    </g>
   </g>
   <g id="line2d_8">
    <defs>
     <path d="M 0 10 
C 2.652031 10 5.195799 8.946337 7.071068 7.071068 
C 8.946337 5.195799 10 2.652031 10 0 
C 10 -2.652031 8.946337 -5.195799 7.071068 -7.071068 
C 5.195799 -8.946337 2.652031 -10 0 -10 
C -2.652031 -10 -5.195799 -8.946337 -7.071068 -7.071068 
C -8.946337 -5.195799 -10 -2.652031 -10 0 
C -10 2.652031 -8.946337 5.195799 -7.071068 7.071068 
C -5.195799 8.946337 -2.652031 10 0 10 
z
" id="m4dd35ea2b3" style="stroke:#000080;stroke-opacity:0.949231;"/>
    </defs>
    <g clip-path="url(#p6931bf4e96)">
     <use style="fill:#000080;fill-opacity:0.949231;stroke:#000080;stroke-opacity:0.949231;" x="411.859535" xlink:href="#m4dd35ea2b3" y="290.64808"/>
    </g>
   </g>
   <g id="line2d_9">
    <defs>
     <path d="M 0 10 
C 2.652031 10 5.195799 8.946337 7.071068 7.071068 
C 8.946337 5.195799 10 2.652031 10 0 
C 10 -2.652031 8.946337 -5.195799 7.071068 -7.071068 
C 5.195799 -8.946337 2.652031 -10 0 -10 
C -2.652031 -10 -5.195799 -8.946337 -7.071068 -7.071068 
C -8.946337 -5.195799 -10 -2.652031 -10 0 
C -10 2.652031 -8.946337 5.195799 -7.071068 7.071068 
C -5.195799 8.946337 -2.652031 10 0 10 
z
" id="m8f4d9eb34a" style="stroke:#000080;stroke-opacity:0.923846;"/>
    </defs>
    <g clip-path="url(#p6931bf4e96)">
     <use style="fill:#000080;fill-opacity:0.923846;stroke:#000080;stroke-opacity:0.923846;" x="411.786253" xlink:href="#m8f4d9eb34a" y="291.173098"/>
    </g>
   </g>
   <g id="line2d_10">
    <defs>
     <path d="M 0 10 
C 2.652031 10 5.195799 8.946337 7.071068 7.071068 
C 8.946337 5.195799 10 2.652031 10 0 
C 10 -2.652031 8.946337 -5.195799 7.071068 -7.071068 
C 5.195799 -8.946337 2.652031 -10 0 -10 
C -2.652031 -10 -5.195799 -8.946337 -7.071068 -7.071068 
C -8.946337 -5.195799 -10 -2.652031 -10 0 
C -10 2.652031 -8.946337 5.195799 -7.071068 7.071068 
C -5.195799 8.946337 -2.652031 10 0 10 
z
" id="m7d5a116583" style="stroke:#000080;stroke-opacity:0.898462;"/>
    </defs>
    <g clip-path="url(#p6931bf4e96)">
     <use style="fill:#000080;fill-opacity:0.898462;stroke:#000080;stroke-opacity:0.898462;" x="411.987007" xlink:href="#m7d5a116583" y="290.597626"/>
    </g>
   </g>
   <g id="line2d_11">
    <defs>
     <path d="M 0 10 
C 2.652031 10 5.195799 8.946337 7.071068 7.071068 
C 8.946337 5.195799 10 2.652031 10 0 
C 10 -2.652031 8.946337 -5.195799 7.071068 -7.071068 
C 5.195799 -8.946337 2.652031 -10 0 -10 
C -2.652031 -10 -5.195799 -8.946337 -7.071068 -7.071068 
C -8.946337 -5.195799 -10 -2.652031 -10 0 
C -10 2.652031 -8.946337 5.195799 -7.071068 7.071068 
C -5.195799 8.946337 -2.652031 10 0 10 
z
" id="mb938233dea" style="stroke:#000080;stroke-opacity:0.873077;"/>
    </defs>
    <g clip-path="url(#p6931bf4e96)">
     <use style="fill:#000080;fill-opacity:0.873077;stroke:#000080;stroke-opacity:0.873077;" x="411.937572" xlink:href="#mb938233dea" y="291.016068"/>
    </g>
   </g>
   <g id="line2d_12">
    <defs>
     <path d="M 0 10 
C 2.652031 10 5.195799 8.946337 7.071068 7.071068 
C 8.946337 5.195799 10 2.652031 10 0 
C 10 -2.652031 8.946337 -5.195799 7.071068 -7.071068 
C 5.195799 -8.946337 2.652031 -10 0 -10 
C -2.652031 -10 -5.195799 -8.946337 -7.071068 -7.071068 
C -8.946337 -5.195799 -10 -2.652031 -10 0 
C -10 2.652031 -8.946337 5.195799 -7.071068 7.071068 
C -5.195799 8.946337 -2.652031 10 0 10 
z
" id="m86595d61b2" style="stroke:#000080;stroke-opacity:0.847692;"/>
    </defs>
    <g clip-path="url(#p6931bf4e96)">
     <use style="fill:#000080;fill-opacity:0.847692;stroke:#000080;stroke-opacity:0.847692;" x="411.689461" xlink:href="#m86595d61b2" y="291.18781"/>
    </g>
   </g>
   <g id="line2d_13">
    <defs>
     <path d="M 0 10 
C 2.652031 10 5.195799 8.946337 7.071068 7.071068 
C 8.946337 5.195799 10 2.652031 10 0 
C 10 -2.652031 8.946337 -5.195799 7.071068 -7.071068 
C 5.195799 -8.946337 2.652031 -10 0 -10 
C -2.652031 -10 -5.195799 -8.946337 -7.071068 -7.071068 
C -8.946337 -5.195799 -10 -2.652031 -10 0 
C -10 2.652031 -8.946337 5.195799 -7.071068 7.071068 
C -5.195799 8.946337 -2.652031 10 0 10 
z
" id="m0ed70c8063" style="stroke:#000080;stroke-opacity:0.822308;"/>
    </defs>
    <g clip-path="url(#p6931bf4e96)">
     <use style="fill:#000080;fill-opacity:0.822308;stroke:#000080;stroke-opacity:0.822308;" x="411.832486" xlink:href="#m0ed70c8063" y="291.303023"/>
    </g>
   </g>
   <g id="line2d_14">
    <defs>
     <path d="M 0 10 
C 2.652031 10 5.195799 8.946337 7.071068 7.071068 
C 8.946337 5.195799 10 2.652031 10 0 
C 10 -2.652031 8.946337 -5.195799 7.071068 -7.071068 
C 5.195799 -8.946337 2.652031 -10 0 -10 
C -2.652031 -10 -5.195799 -8.946337 -7.071068 -7.071068 
C -8.946337 -5.195799 -10 -2.652031 -10 0 
C -10 2.652031 -8.946337 5.195799 -7.071068 7.071068 
C -5.195799 8.946337 -2.652031 10 0 10 
z
" id="mcb6eda02b4" style="stroke:#000080;stroke-opacity:0.796923;"/>
    </defs>
    <g clip-path="url(#p6931bf4e96)">
     <use style="fill:#000080;fill-opacity:0.796923;stroke:#000080;stroke-opacity:0.796923;" x="411.66941" xlink:href="#mcb6eda02b4" y="291.267504"/>
    </g>
   </g>
   <g id="line2d_15">
    <defs>
     <path d="M 0 10 
C 2.652031 10 5.195799 8.946337 7.071068 7.071068 
C 8.946337 5.195799 10 2.652031 10 0 
C 10 -2.652031 8.946337 -5.195799 7.071068 -7.071068 
C 5.195799 -8.946337 2.652031 -10 0 -10 
C -2.652031 -10 -5.195799 -8.946337 -7.071068 -7.071068 
C -8.946337 -5.195799 -10 -2.652031 -10 0 
C -10 2.652031 -8.946337 5.195799 -7.071068 7.071068 
C -5.195799 8.946337 -2.652031 10 0 10 
z
" id="m112232281f" style="stroke:#000080;stroke-opacity:0.771538;"/>
    </defs>
    <g clip-path="url(#p6931bf4e96)">
     <use style="fill:#000080;fill-opacity:0.771538;stroke:#000080;stroke-opacity:0.771538;" x="411.522585" xlink:href="#m112232281f" y="292.459639"/>
    </g>
   </g>
   <g id="line2d_16">
    <defs>
     <path d="M 0 10 
C 2.652031 10 5.195799 8.946337 7.071068 7.071068 
C 8.946337 5.195799 10 2.652031 10 0 
C 10 -2.652031 8.946337 -5.195799 7.071068 -7.071068 
C 5.195799 -8.946337 2.652031 -10 0 -10 
C -2.652031 -10 -5.195799 -8.946337 -7.071068 -7.071068 
C -8.946337 -5.195799 -10 -2.652031 -10 0 
C -10 2.652031 -8.946337 5.195799 -7.071068 7.071068 
C -5.195799 8.946337 -2.652031 10 0 10 
z
" id="mb3a12d1f42" style="stroke:#000080;stroke-opacity:0.746154;"/>
    </defs>
    <g clip-path="url(#p6931bf4e96)">
     <use style="fill:#000080;fill-opacity:0.746154;stroke:#000080;stroke-opacity:0.746154;" x="411.232179" xlink:href="#mb3a12d1f42" y="291.760284"/>
    </g>
   </g>
   <g id="line2d_17">
    <defs>
     <path d="M 0 10 
C 2.652031 10 5.195799 8.946337 7.071068 7.071068 
C 8.946337 5.195799 10 2.652031 10 0 
C 10 -2.652031 8.946337 -5.195799 7.071068 -7.071068 
C 5.195799 -8.946337 2.652031 -10 0 -10 
C -2.652031 -10 -5.195799 -8.946337 -7.071068 -7.071068 
C -8.946337 -5.195799 -10 -2.652031 -10 0 
C -10 2.652031 -8.946337 5.195799 -7.071068 7.071068 
C -5.195799 8.946337 -2.652031 10 0 10 
z
" id="m0555729fb1" style="stroke:#000080;stroke-opacity:0.720769;"/>
    </defs>
    <g clip-path="url(#p6931bf4e96)">
     <use style="fill:#000080;fill-opacity:0.720769;stroke:#000080;stroke-opacity:0.720769;" x="411.293159" xlink:href="#m0555729fb1" y="292.097096"/>
    </g>
   </g>
   <g id="line2d_18">
    <defs>
     <path d="M 0 10 
C 2.652031 10 5.195799 8.946337 7.071068 7.071068 
C 8.946337 5.195799 10 2.652031 10 0 
C 10 -2.652031 8.946337 -5.195799 7.071068 -7.071068 
C 5.195799 -8.946337 2.652031 -10 0 -10 
C -2.652031 -10 -5.195799 -8.946337 -7.071068 -7.071068 
C -8.946337 -5.195799 -10 -2.652031 -10 0 
C -10 2.652031 -8.946337 5.195799 -7.071068 7.071068 
C -5.195799 8.946337 -2.652031 10 0 10 
z
" id="m503e7814a6" style="stroke:#000080;stroke-opacity:0.695385;"/>
    </defs>
    <g clip-path="url(#p6931bf4e96)">
     <use style="fill:#000080;fill-opacity:0.695385;stroke:#000080;stroke-opacity:0.695385;" x="411.144367" xlink:href="#m503e7814a6" y="291.949605"/>
    </g>
   </g>
   <g id="line2d_19">
    <defs>
     <path d="M 0 10 
C 2.652031 10 5.195799 8.946337 7.071068 7.071068 
C 8.946337 5.195799 10 2.652031 10 0 
C 10 -2.652031 8.946337 -5.195799 7.071068 -7.071068 
C 5.195799 -8.946337 2.652031 -10 0 -10 
C -2.652031 -10 -5.195799 -8.946337 -7.071068 -7.071068 
C -8.946337 -5.195799 -10 -2.652031 -10 0 
C -10 2.652031 -8.946337 5.195799 -7.071068 7.071068 
C -5.195799 8.946337 -2.652031 10 0 10 
z
" id="m710749950a" style="stroke:#000080;stroke-opacity:0.67;"/>
    </defs>
    <g clip-path="url(#p6931bf4e96)">
     <use style="fill:#000080;fill-opacity:0.67;stroke:#000080;stroke-opacity:0.67;" x="410.877768" xlink:href="#m710749950a" y="291.777677"/>
    </g>
   </g>
   <g id="line2d_20">
    <defs>
     <path d="M 0 10 
C 2.652031 10 5.195799 8.946337 7.071068 7.071068 
C 8.946337 5.195799 10 2.652031 10 0 
C 10 -2.652031 8.946337 -5.195799 7.071068 -7.071068 
C 5.195799 -8.946337 2.652031 -10 0 -10 
C -2.652031 -10 -5.195799 -8.946337 -7.071068 -7.071068 
C -8.946337 -5.195799 -10 -2.652031 -10 0 
C -10 2.652031 -8.946337 5.195799 -7.071068 7.071068 
C -5.195799 8.946337 -2.652031 10 0 10 
z
" id="m93b3268b75" style="stroke:#000080;stroke-opacity:0.644615;"/>
    </defs>
    <g clip-path="url(#p6931bf4e96)">
     <use style="fill:#000080;fill-opacity:0.644615;stroke:#000080;stroke-opacity:0.644615;" x="410.511688" xlink:href="#m93b3268b75" y="291.731458"/>
    </g>
   </g>
   <g id="line2d_21">
    <defs>
     <path d="M 0 10 
C 2.652031 10 5.195799 8.946337 7.071068 7.071068 
C 8.946337 5.195799 10 2.652031 10 0 
C 10 -2.652031 8.946337 -5.195799 7.071068 -7.071068 
C 5.195799 -8.946337 2.652031 -10 0 -10 
C -2.652031 -10 -5.195799 -8.946337 -7.071068 -7.071068 
C -8.946337 -5.195799 -10 -2.652031 -10 0 
C -10 2.652031 -8.946337 5.195799 -7.071068 7.071068 
C -5.195799 8.946337 -2.652031 10 0 10 
z
" id="m355a97800b" style="stroke:#000080;stroke-opacity:0.619231;"/>
    </defs>
    <g clip-path="url(#p6931bf4e96)">
     <use style="fill:#000080;fill-opacity:0.619231;stroke:#000080;stroke-opacity:0.619231;" x="410.290689" xlink:href="#m355a97800b" y="291.937528"/>
    </g>
   </g>
   <g id="line2d_22">
    <defs>
     <path d="M 0 10 
C 2.652031 10 5.195799 8.946337 7.071068 7.071068 
C 8.946337 5.195799 10 2.652031 10 0 
C 10 -2.652031 8.946337 -5.195799 7.071068 -7.071068 
C 5.195799 -8.946337 2.652031 -10 0 -10 
C -2.652031 -10 -5.195799 -8.946337 -7.071068 -7.071068 
C -8.946337 -5.195799 -10 -2.652031 -10 0 
C -10 2.652031 -8.946337 5.195799 -7.071068 7.071068 
C -5.195799 8.946337 -2.652031 10 0 10 
z
" id="m5bb7cbb281" style="stroke:#000080;stroke-opacity:0.593846;"/>
    </defs>
    <g clip-path="url(#p6931bf4e96)">
     <use style="fill:#000080;fill-opacity:0.593846;stroke:#000080;stroke-opacity:0.593846;" x="409.614166" xlink:href="#m5bb7cbb281" y="292.236448"/>
    </g>
   </g>
   <g id="line2d_23">
    <defs>
     <path d="M 0 10 
C 2.652031 10 5.195799 8.946337 7.071068 7.071068 
C 8.946337 5.195799 10 2.652031 10 0 
C 10 -2.652031 8.946337 -5.195799 7.071068 -7.071068 
C 5.195799 -8.946337 2.652031 -10 0 -10 
C -2.652031 -10 -5.195799 -8.946337 -7.071068 -7.071068 
C -8.946337 -5.195799 -10 -2.652031 -10 0 
C -10 2.652031 -8.946337 5.195799 -7.071068 7.071068 
C -5.195799 8.946337 -2.652031 10 0 10 
z
" id="m8afef8e129" style="stroke:#000080;stroke-opacity:0.568462;"/>
    </defs>
    <g clip-path="url(#p6931bf4e96)">
     <use style="fill:#000080;fill-opacity:0.568462;stroke:#000080;stroke-opacity:0.568462;" x="408.847388" xlink:href="#m8afef8e129" y="292.699358"/>
    </g>
   </g>
   <g id="line2d_24">
    <defs>
     <path d="M 0 10 
C 2.652031 10 5.195799 8.946337 7.071068 7.071068 
C 8.946337 5.195799 10 2.652031 10 0 
C 10 -2.652031 8.946337 -5.195799 7.071068 -7.071068 
C 5.195799 -8.946337 2.652031 -10 0 -10 
C -2.652031 -10 -5.195799 -8.946337 -7.071068 -7.071068 
C -8.946337 -5.195799 -10 -2.652031 -10 0 
C -10 2.652031 -8.946337 5.195799 -7.071068 7.071068 
C -5.195799 8.946337 -2.652031 10 0 10 
z
" id="mec1436d8dd" style="stroke:#000080;stroke-opacity:0.543077;"/>
    </defs>
    <g clip-path="url(#p6931bf4e96)">
     <use style="fill:#000080;fill-opacity:0.543077;stroke:#000080;stroke-opacity:0.543077;" x="409.15304" xlink:href="#mec1436d8dd" y="292.439563"/>
    </g>
   </g>
   <g id="line2d_25">
    <defs>
     <path d="M 0 10 
C 2.652031 10 5.195799 8.946337 7.071068 7.071068 
C 8.946337 5.195799 10 2.652031 10 0 
C 10 -2.652031 8.946337 -5.195799 7.071068 -7.071068 
C 5.195799 -8.946337 2.652031 -10 0 -10 
C -2.652031 -10 -5.195799 -8.946337 -7.071068 -7.071068 
C -8.946337 -5.195799 -10 -2.652031 -10 0 
C -10 2.652031 -8.946337 5.195799 -7.071068 7.071068 
C -5.195799 8.946337 -2.652031 10 0 10 
z
" id="m983d9a2ccb" style="stroke:#000080;stroke-opacity:0.517692;"/>
    </defs>
    <g clip-path="url(#p6931bf4e96)">
     <use style="fill:#000080;fill-opacity:0.517692;stroke:#000080;stroke-opacity:0.517692;" x="409.212557" xlink:href="#m983d9a2ccb" y="292.439563"/>
    </g>
   </g>
   <g id="line2d_26">
    <defs>
     <path d="M 0 10 
C 2.652031 10 5.195799 8.946337 7.071068 7.071068 
C 8.946337 5.195799 10 2.652031 10 0 
C 10 -2.652031 8.946337 -5.195799 7.071068 -7.071068 
C 5.195799 -8.946337 2.652031 -10 0 -10 
C -2.652031 -10 -5.195799 -8.946337 -7.071068 -7.071068 
C -8.946337 -5.195799 -10 -2.652031 -10 0 
C -10 2.652031 -8.946337 5.195799 -7.071068 7.071068 
C -5.195799 8.946337 -2.652031 10 0 10 
z
" id="ma912372b61" style="stroke:#000080;stroke-opacity:0.492308;"/>
    </defs>
    <g clip-path="url(#p6931bf4e96)">
     <use style="fill:#000080;fill-opacity:0.492308;stroke:#000080;stroke-opacity:0.492308;" x="409.092986" xlink:href="#ma912372b61" y="292.159945"/>
    </g>
   </g>
   <g id="line2d_27">
    <defs>
     <path d="M 0 10 
C 2.652031 10 5.195799 8.946337 7.071068 7.071068 
C 8.946337 5.195799 10 2.652031 10 0 
C 10 -2.652031 8.946337 -5.195799 7.071068 -7.071068 
C 5.195799 -8.946337 2.652031 -10 0 -10 
C -2.652031 -10 -5.195799 -8.946337 -7.071068 -7.071068 
C -8.946337 -5.195799 -10 -2.652031 -10 0 
C -10 2.652031 -8.946337 5.195799 -7.071068 7.071068 
C -5.195799 8.946337 -2.652031 10 0 10 
z
" id="mb0ce10a365" style="stroke:#000080;stroke-opacity:0.466923;"/>
    </defs>
    <g clip-path="url(#p6931bf4e96)">
     <use style="fill:#000080;fill-opacity:0.466923;stroke:#000080;stroke-opacity:0.466923;" x="408.678863" xlink:href="#mb0ce10a365" y="293.037231"/>
    </g>
   </g>
   <g id="line2d_28">
    <defs>
     <path d="M 0 10 
C 2.652031 10 5.195799 8.946337 7.071068 7.071068 
C 8.946337 5.195799 10 2.652031 10 0 
C 10 -2.652031 8.946337 -5.195799 7.071068 -7.071068 
C 5.195799 -8.946337 2.652031 -10 0 -10 
C -2.652031 -10 -5.195799 -8.946337 -7.071068 -7.071068 
C -8.946337 -5.195799 -10 -2.652031 -10 0 
C -10 2.652031 -8.946337 5.195799 -7.071068 7.071068 
C -5.195799 8.946337 -2.652031 10 0 10 
z
" id="m25cbe96276" style="stroke:#000080;stroke-opacity:0.441538;"/>
    </defs>
    <g clip-path="url(#p6931bf4e96)">
     <use style="fill:#000080;fill-opacity:0.441538;stroke:#000080;stroke-opacity:0.441538;" x="408.678863" xlink:href="#m25cbe96276" y="293.12644"/>
    </g>
   </g>
   <g id="line2d_29">
    <defs>
     <path d="M 0 10 
C 2.652031 10 5.195799 8.946337 7.071068 7.071068 
C 8.946337 5.195799 10 2.652031 10 0 
C 10 -2.652031 8.946337 -5.195799 7.071068 -7.071068 
C 5.195799 -8.946337 2.652031 -10 0 -10 
C -2.652031 -10 -5.195799 -8.946337 -7.071068 -7.071068 
C -8.946337 -5.195799 -10 -2.652031 -10 0 
C -10 2.652031 -8.946337 5.195799 -7.071068 7.071068 
C -5.195799 8.946337 -2.652031 10 0 10 
z
" id="m92b391a3a4" style="stroke:#000080;stroke-opacity:0.416154;"/>
    </defs>
    <g clip-path="url(#p6931bf4e96)">
     <use style="fill:#000080;fill-opacity:0.416154;stroke:#000080;stroke-opacity:0.416154;" x="408.805617" xlink:href="#m92b391a3a4" y="292.500015"/>
    </g>
   </g>
   <g id="line2d_30">
    <defs>
     <path d="M 0 10 
C 2.652031 10 5.195799 8.946337 7.071068 7.071068 
C 8.946337 5.195799 10 2.652031 10 0 
C 10 -2.652031 8.946337 -5.195799 7.071068 -7.071068 
C 5.195799 -8.946337 2.652031 -10 0 -10 
C -2.652031 -10 -5.195799 -8.946337 -7.071068 -7.071068 
C -8.946337 -5.195799 -10 -2.652031 -10 0 
C -10 2.652031 -8.946337 5.195799 -7.071068 7.071068 
C -5.195799 8.946337 -2.652031 10 0 10 
z
" id="m67b526383f" style="stroke:#000080;stroke-opacity:0.390769;"/>
    </defs>
    <g clip-path="url(#p6931bf4e96)">
     <use style="fill:#000080;fill-opacity:0.390769;stroke:#000080;stroke-opacity:0.390769;" x="408.700139" xlink:href="#m67b526383f" y="293.409063"/>
    </g>
   </g>
   <g id="line2d_31">
    <defs>
     <path d="M 0 10 
C 2.652031 10 5.195799 8.946337 7.071068 7.071068 
C 8.946337 5.195799 10 2.652031 10 0 
C 10 -2.652031 8.946337 -5.195799 7.071068 -7.071068 
C 5.195799 -8.946337 2.652031 -10 0 -10 
C -2.652031 -10 -5.195799 -8.946337 -7.071068 -7.071068 
C -8.946337 -5.195799 -10 -2.652031 -10 0 
C -10 2.652031 -8.946337 5.195799 -7.071068 7.071068 
C -5.195799 8.946337 -2.652031 10 0 10 
z
" id="mfe195c3eac" style="stroke:#000080;stroke-opacity:0.365385;"/>
    </defs>
    <g clip-path="url(#p6931bf4e96)">
     <use style="fill:#000080;fill-opacity:0.365385;stroke:#000080;stroke-opacity:0.365385;" x="409.426195" xlink:href="#mfe195c3eac" y="292.275143"/>
    </g>
   </g>
   <g id="line2d_32">
    <defs>
     <path d="M 0 10 
C 2.652031 10 5.195799 8.946337 7.071068 7.071068 
C 8.946337 5.195799 10 2.652031 10 0 
C 10 -2.652031 8.946337 -5.195799 7.071068 -7.071068 
C 5.195799 -8.946337 2.652031 -10 0 -10 
C -2.652031 -10 -5.195799 -8.946337 -7.071068 -7.071068 
C -8.946337 -5.195799 -10 -2.652031 -10 0 
C -10 2.652031 -8.946337 5.195799 -7.071068 7.071068 
C -5.195799 8.946337 -2.652031 10 0 10 
z
" id="m44703db080" style="stroke:#000080;stroke-opacity:0.34;"/>
    </defs>
    <g clip-path="url(#p6931bf4e96)">
     <use style="fill:#000080;fill-opacity:0.34;stroke:#000080;stroke-opacity:0.34;" x="409.15304" xlink:href="#m44703db080" y="291.883582"/>
    </g>
   </g>
   <g id="line2d_33">
    <defs>
     <path d="M 0 10 
C 2.652031 10 5.195799 8.946337 7.071068 7.071068 
C 8.946337 5.195799 10 2.652031 10 0 
C 10 -2.652031 8.946337 -5.195799 7.071068 -7.071068 
C 5.195799 -8.946337 2.652031 -10 0 -10 
C -2.652031 -10 -5.195799 -8.946337 -7.071068 -7.071068 
C -8.946337 -5.195799 -10 -2.652031 -10 0 
C -10 2.652031 -8.946337 5.195799 -7.071068 7.071068 
C -5.195799 8.946337 -2.652031 10 0 10 
z
" id="mb88ccc1eaf" style="stroke:#000080;stroke-opacity:0.314615;"/>
    </defs>
    <g clip-path="url(#p6931bf4e96)">
     <use style="fill:#000080;fill-opacity:0.314615;stroke:#000080;stroke-opacity:0.314615;" x="409.368645" xlink:href="#mb88ccc1eaf" y="292.072187"/>
    </g>
   </g>
   <g id="line2d_34">
    <defs>
     <path d="M 0 10 
C 2.652031 10 5.195799 8.946337 7.071068 7.071068 
C 8.946337 5.195799 10 2.652031 10 0 
C 10 -2.652031 8.946337 -5.195799 7.071068 -7.071068 
C 5.195799 -8.946337 2.652031 -10 0 -10 
C -2.652031 -10 -5.195799 -8.946337 -7.071068 -7.071068 
C -8.946337 -5.195799 -10 -2.652031 -10 0 
C -10 2.652031 -8.946337 5.195799 -7.071068 7.071068 
C -5.195799 8.946337 -2.652031 10 0 10 
z
" id="mb1c2436709" style="stroke:#000080;stroke-opacity:0.289231;"/>
    </defs>
    <g clip-path="url(#p6931bf4e96)">
     <use style="fill:#000080;fill-opacity:0.289231;stroke:#000080;stroke-opacity:0.289231;" x="409.092986" xlink:href="#mb1c2436709" y="292.097096"/>
    </g>
   </g>
   <g id="line2d_35">
    <defs>
     <path d="M 0 10 
C 2.652031 10 5.195799 8.946337 7.071068 7.071068 
C 8.946337 5.195799 10 2.652031 10 0 
C 10 -2.652031 8.946337 -5.195799 7.071068 -7.071068 
C 5.195799 -8.946337 2.652031 -10 0 -10 
C -2.652031 -10 -5.195799 -8.946337 -7.071068 -7.071068 
C -8.946337 -5.195799 -10 -2.652031 -10 0 
C -10 2.652031 -8.946337 5.195799 -7.071068 7.071068 
C -5.195799 8.946337 -2.652031 10 0 10 
z
" id="m82459fc8bf" style="stroke:#000080;stroke-opacity:0.263846;"/>
    </defs>
    <g clip-path="url(#p6931bf4e96)">
     <use style="fill:#000080;fill-opacity:0.263846;stroke:#000080;stroke-opacity:0.263846;" x="409.052651" xlink:href="#m82459fc8bf" y="292.399632"/>
    </g>
   </g>
   <g id="line2d_36">
    <defs>
     <path d="M 0 10 
C 2.652031 10 5.195799 8.946337 7.071068 7.071068 
C 8.946337 5.195799 10 2.652031 10 0 
C 10 -2.652031 8.946337 -5.195799 7.071068 -7.071068 
C 5.195799 -8.946337 2.652031 -10 0 -10 
C -2.652031 -10 -5.195799 -8.946337 -7.071068 -7.071068 
C -8.946337 -5.195799 -10 -2.652031 -10 0 
C -10 2.652031 -8.946337 5.195799 -7.071068 7.071068 
C -5.195799 8.946337 -2.652031 10 0 10 
z
" id="mec11abc525" style="stroke:#000080;stroke-opacity:0.238462;"/>
    </defs>
    <g clip-path="url(#p6931bf4e96)">
     <use style="fill:#000080;fill-opacity:0.238462;stroke:#000080;stroke-opacity:0.238462;" x="408.930212" xlink:href="#mec11abc525" y="291.590386"/>
    </g>
   </g>
   <g id="line2d_37">
    <defs>
     <path d="M 0 10 
C 2.652031 10 5.195799 8.946337 7.071068 7.071068 
C 8.946337 5.195799 10 2.652031 10 0 
C 10 -2.652031 8.946337 -5.195799 7.071068 -7.071068 
C 5.195799 -8.946337 2.652031 -10 0 -10 
C -2.652031 -10 -5.195799 -8.946337 -7.071068 -7.071068 
C -8.946337 -5.195799 -10 -2.652031 -10 0 
C -10 2.652031 -8.946337 5.195799 -7.071068 7.071068 
C -5.195799 8.946337 -2.652031 10 0 10 
z
" id="md39caf3158" style="stroke:#000080;stroke-opacity:0.213077;"/>
    </defs>
    <g clip-path="url(#p6931bf4e96)">
     <use style="fill:#000080;fill-opacity:0.213077;stroke:#000080;stroke-opacity:0.213077;" x="409.349342" xlink:href="#md39caf3158" y="292.307615"/>
    </g>
   </g>
   <g id="line2d_38">
    <defs>
     <path d="M 0 10 
C 2.652031 10 5.195799 8.946337 7.071068 7.071068 
C 8.946337 5.195799 10 2.652031 10 0 
C 10 -2.652031 8.946337 -5.195799 7.071068 -7.071068 
C 5.195799 -8.946337 2.652031 -10 0 -10 
C -2.652031 -10 -5.195799 -8.946337 -7.071068 -7.071068 
C -8.946337 -5.195799 -10 -2.652031 -10 0 
C -10 2.652031 -8.946337 5.195799 -7.071068 7.071068 
C -5.195799 8.946337 -2.652031 10 0 10 
z
" id="mc4373fb13f" style="stroke:#000080;stroke-opacity:0.187692;"/>
    </defs>
    <g clip-path="url(#p6931bf4e96)">
     <use style="fill:#000080;fill-opacity:0.187692;stroke:#000080;stroke-opacity:0.187692;" x="409.902584" xlink:href="#mc4373fb13f" y="292.840893"/>
    </g>
   </g>
   <g id="line2d_39">
    <defs>
     <path d="M 0 10 
C 2.652031 10 5.195799 8.946337 7.071068 7.071068 
C 8.946337 5.195799 10 2.652031 10 0 
C 10 -2.652031 8.946337 -5.195799 7.071068 -7.071068 
C 5.195799 -8.946337 2.652031 -10 0 -10 
C -2.652031 -10 -5.195799 -8.946337 -7.071068 -7.071068 
C -8.946337 -5.195799 -10 -2.652031 -10 0 
C -10 2.652031 -8.946337 5.195799 -7.071068 7.071068 
C -5.195799 8.946337 -2.652031 10 0 10 
z
" id="m48527ae408" style="stroke:#000080;stroke-opacity:0.162308;"/>
    </defs>
    <g clip-path="url(#p6931bf4e96)">
     <use style="fill:#000080;fill-opacity:0.162308;stroke:#000080;stroke-opacity:0.162308;" x="409.972322" xlink:href="#m48527ae408" y="292.05359"/>
    </g>
   </g>
   <g id="line2d_40">
    <defs>
     <path d="M 0 10 
C 2.652031 10 5.195799 8.946337 7.071068 7.071068 
C 8.946337 5.195799 10 2.652031 10 0 
C 10 -2.652031 8.946337 -5.195799 7.071068 -7.071068 
C 5.195799 -8.946337 2.652031 -10 0 -10 
C -2.652031 -10 -5.195799 -8.946337 -7.071068 -7.071068 
C -8.946337 -5.195799 -10 -2.652031 -10 0 
C -10 2.652031 -8.946337 5.195799 -7.071068 7.071068 
C -5.195799 8.946337 -2.652031 10 0 10 
z
" id="m8ce32a6c4d" style="stroke:#000080;stroke-opacity:0.136923;"/>
    </defs>
    <g clip-path="url(#p6931bf4e96)">
     <use style="fill:#000080;fill-opacity:0.136923;stroke:#000080;stroke-opacity:0.136923;" x="409.595636" xlink:href="#m8ce32a6c4d" y="292.078402"/>
    </g>
   </g>
   <g id="line2d_41">
    <defs>
     <path d="M 0 10 
C 2.652031 10 5.195799 8.946337 7.071068 7.071068 
C 8.946337 5.195799 10 2.652031 10 0 
C 10 -2.652031 8.946337 -5.195799 7.071068 -7.071068 
C 5.195799 -8.946337 2.652031 -10 0 -10 
C -2.652031 -10 -5.195799 -8.946337 -7.071068 -7.071068 
C -8.946337 -5.195799 -10 -2.652031 -10 0 
C -10 2.652031 -8.946337 5.195799 -7.071068 7.071068 
C -5.195799 8.946337 -2.652031 10 0 10 
z
" id="m45b66657eb" style="stroke:#000080;stroke-opacity:0.111538;"/>
    </defs>
    <g clip-path="url(#p6931bf4e96)">
     <use style="fill:#000080;fill-opacity:0.111538;stroke:#000080;stroke-opacity:0.111538;" x="410.09209" xlink:href="#m45b66657eb" y="291.292834"/>
    </g>
   </g>
   <g id="line2d_42">
    <defs>
     <path d="M 0 10 
C 2.652031 10 5.195799 8.946337 7.071068 7.071068 
C 8.946337 5.195799 10 2.652031 10 0 
C 10 -2.652031 8.946337 -5.195799 7.071068 -7.071068 
C 5.195799 -8.946337 2.652031 -10 0 -10 
C -2.652031 -10 -5.195799 -8.946337 -7.071068 -7.071068 
C -8.946337 -5.195799 -10 -2.652031 -10 0 
C -10 2.652031 -8.946337 5.195799 -7.071068 7.071068 
C -5.195799 8.946337 -2.652031 10 0 10 
z
" id="m4ad07781cd" style="stroke:#000080;stroke-opacity:0.086154;"/>
    </defs>
    <g clip-path="url(#p6931bf4e96)">
     <use style="fill:#000080;fill-opacity:0.086154;stroke:#000080;stroke-opacity:0.086154;" x="410.041115" xlink:href="#m4ad07781cd" y="291.986036"/>
    </g>
   </g>
   <g id="line2d_43">
    <defs>
     <path d="M 0 10 
C 2.652031 10 5.195799 8.946337 7.071068 7.071068 
C 8.946337 5.195799 10 2.652031 10 0 
C 10 -2.652031 8.946337 -5.195799 7.071068 -7.071068 
C 5.195799 -8.946337 2.652031 -10 0 -10 
C -2.652031 -10 -5.195799 -8.946337 -7.071068 -7.071068 
C -8.946337 -5.195799 -10 -2.652031 -10 0 
C -10 2.652031 -8.946337 5.195799 -7.071068 7.071068 
C -5.195799 8.946337 -2.652031 10 0 10 
z
" id="m655f70e5ad" style="stroke:#000080;stroke-opacity:0.060769;"/>
    </defs>
    <g clip-path="url(#p6931bf4e96)">
     <use style="fill:#000080;fill-opacity:0.060769;stroke:#000080;stroke-opacity:0.060769;" x="409.920107" xlink:href="#m655f70e5ad" y="292.128418"/>
    </g>
   </g>
   <g id="line2d_44">
    <defs>
     <path d="M 0 10 
C 2.652031 10 5.195799 8.946337 7.071068 7.071068 
C 8.946337 5.195799 10 2.652031 10 0 
C 10 -2.652031 8.946337 -5.195799 7.071068 -7.071068 
C 5.195799 -8.946337 2.652031 -10 0 -10 
C -2.652031 -10 -5.195799 -8.946337 -7.071068 -7.071068 
C -8.946337 -5.195799 -10 -2.652031 -10 0 
C -10 2.652031 -8.946337 5.195799 -7.071068 7.071068 
C -5.195799 8.946337 -2.652031 10 0 10 
z
" id="m82fe13c9c9" style="stroke:#000080;stroke-opacity:0.035385;"/>
    </defs>
    <g clip-path="url(#p6931bf4e96)">
     <use style="fill:#000080;fill-opacity:0.035385;stroke:#000080;stroke-opacity:0.035385;" x="409.232276" xlink:href="#m82fe13c9c9" y="291.540847"/>
    </g>
   </g>
   <g id="line2d_45">
    <defs>
     <path d="M 0 10 
C 2.652031 10 5.195799 8.946337 7.071068 7.071068 
C 8.946337 5.195799 10 2.652031 10 0 
C 10 -2.652031 8.946337 -5.195799 7.071068 -7.071068 
C 5.195799 -8.946337 2.652031 -10 0 -10 
C -2.652031 -10 -5.195799 -8.946337 -7.071068 -7.071068 
C -8.946337 -5.195799 -10 -2.652031 -10 0 
C -10 2.652031 -8.946337 5.195799 -7.071068 7.071068 
C -5.195799 8.946337 -2.652031 10 0 10 
z
" id="m0ce0f03fe6" style="stroke:#000080;stroke-opacity:0.01;"/>
    </defs>
    <g clip-path="url(#p6931bf4e96)">
     <use style="fill:#000080;fill-opacity:0.01;stroke:#000080;stroke-opacity:0.01;" x="409.387888" xlink:href="#m0ce0f03fe6" y="291.685761"/>
    </g>
   </g>
   <g id="line2d_46">
    <path clip-path="url(#p6931bf4e96)" d="M 184.282273 487.349727 
L 640.827727 92.004273 
" style="fill:none;stroke:#000000;stroke-linecap:square;stroke-width:4;"/>
   </g>
   <g id="line2d_47">
    <defs>
     <path d="M 0 10 
C 2.652031 10 5.195799 8.946337 7.071068 7.071068 
C 8.946337 5.195799 10 2.652031 10 0 
C 10 -2.652031 8.946337 -5.195799 7.071068 -7.071068 
C 5.195799 -8.946337 2.652031 -10 0 -10 
C -2.652031 -10 -5.195799 -8.946337 -7.071068 -7.071068 
C -8.946337 -5.195799 -10 -2.652031 -10 0 
C -10 2.652031 -8.946337 5.195799 -7.071068 7.071068 
C -5.195799 8.946337 -2.652031 10 0 10 
z
" id="m40a12fd456" style="stroke:#00a4ff;"/>
    </defs>
    <g clip-path="url(#p6931bf4e96)">
     <use style="fill:#00a4ff;stroke:#00a4ff;" x="412.555" xlink:href="#m40a12fd456" y="289.677142"/>
    </g>
   </g>
   <g id="line2d_48">
    <defs>
     <path d="M 0 10 
C 2.652031 10 5.195799 8.946337 7.071068 7.071068 
C 8.946337 5.195799 10 2.652031 10 0 
C 10 -2.652031 8.946337 -5.195799 7.071068 -7.071068 
C 5.195799 -8.946337 2.652031 -10 0 -10 
C -2.652031 -10 -5.195799 -8.946337 -7.071068 -7.071068 
C -8.946337 -5.195799 -10 -2.652031 -10 0 
C -10 2.652031 -8.946337 5.195799 -7.071068 7.071068 
C -5.195799 8.946337 -2.652031 10 0 10 
z
" id="m2c95e7903c" style="stroke:#00a4ff;stroke-opacity:0.974615;"/>
    </defs>
    <g clip-path="url(#p6931bf4e96)">
     <use style="fill:#00a4ff;fill-opacity:0.974615;stroke:#00a4ff;stroke-opacity:0.974615;" x="412.003025" xlink:href="#m2c95e7903c" y="290.178682"/>
    </g>
   </g>
   <g id="line2d_49">
    <defs>
     <path d="M 0 10 
C 2.652031 10 5.195799 8.946337 7.071068 7.071068 
C 8.946337 5.195799 10 2.652031 10 0 
C 10 -2.652031 8.946337 -5.195799 7.071068 -7.071068 
C 5.195799 -8.946337 2.652031 -10 0 -10 
C -2.652031 -10 -5.195799 -8.946337 -7.071068 -7.071068 
C -8.946337 -5.195799 -10 -2.652031 -10 0 
C -10 2.652031 -8.946337 5.195799 -7.071068 7.071068 
C -5.195799 8.946337 -2.652031 10 0 10 
z
" id="m597110502d" style="stroke:#00a4ff;stroke-opacity:0.949231;"/>
    </defs>
    <g clip-path="url(#p6931bf4e96)">
     <use style="fill:#00a4ff;fill-opacity:0.949231;stroke:#00a4ff;stroke-opacity:0.949231;" x="411.738578" xlink:href="#m597110502d" y="290.014375"/>
    </g>
   </g>
   <g id="line2d_50">
    <defs>
     <path d="M 0 10 
C 2.652031 10 5.195799 8.946337 7.071068 7.071068 
C 8.946337 5.195799 10 2.652031 10 0 
C 10 -2.652031 8.946337 -5.195799 7.071068 -7.071068 
C 5.195799 -8.946337 2.652031 -10 0 -10 
C -2.652031 -10 -5.195799 -8.946337 -7.071068 -7.071068 
C -8.946337 -5.195799 -10 -2.652031 -10 0 
C -10 2.652031 -8.946337 5.195799 -7.071068 7.071068 
C -5.195799 8.946337 -2.652031 10 0 10 
z
" id="m5bd93fee18" style="stroke:#00a4ff;stroke-opacity:0.923846;"/>
    </defs>
    <g clip-path="url(#p6931bf4e96)">
     <use style="fill:#00a4ff;fill-opacity:0.923846;stroke:#00a4ff;stroke-opacity:0.923846;" x="411.814166" xlink:href="#m5bd93fee18" y="290.097605"/>
    </g>
   </g>
   <g id="line2d_51">
    <defs>
     <path d="M 0 10 
C 2.652031 10 5.195799 8.946337 7.071068 7.071068 
C 8.946337 5.195799 10 2.652031 10 0 
C 10 -2.652031 8.946337 -5.195799 7.071068 -7.071068 
C 5.195799 -8.946337 2.652031 -10 0 -10 
C -2.652031 -10 -5.195799 -8.946337 -7.071068 -7.071068 
C -8.946337 -5.195799 -10 -2.652031 -10 0 
C -10 2.652031 -8.946337 5.195799 -7.071068 7.071068 
C -5.195799 8.946337 -2.652031 10 0 10 
z
" id="med682294cd" style="stroke:#00a4ff;stroke-opacity:0.898462;"/>
    </defs>
    <g clip-path="url(#p6931bf4e96)">
     <use style="fill:#00a4ff;fill-opacity:0.898462;stroke:#00a4ff;stroke-opacity:0.898462;" x="411.814166" xlink:href="#med682294cd" y="289.729291"/>
    </g>
   </g>
   <g id="line2d_52">
    <defs>
     <path d="M 0 10 
C 2.652031 10 5.195799 8.946337 7.071068 7.071068 
C 8.946337 5.195799 10 2.652031 10 0 
C 10 -2.652031 8.946337 -5.195799 7.071068 -7.071068 
C 5.195799 -8.946337 2.652031 -10 0 -10 
C -2.652031 -10 -5.195799 -8.946337 -7.071068 -7.071068 
C -8.946337 -5.195799 -10 -2.652031 -10 0 
C -10 2.652031 -8.946337 5.195799 -7.071068 7.071068 
C -5.195799 8.946337 -2.652031 10 0 10 
z
" id="m7cae867c75" style="stroke:#00a4ff;stroke-opacity:0.873077;"/>
    </defs>
    <g clip-path="url(#p6931bf4e96)">
     <use style="fill:#00a4ff;fill-opacity:0.873077;stroke:#00a4ff;stroke-opacity:0.873077;" x="411.84156" xlink:href="#m7cae867c75" y="289.934241"/>
    </g>
   </g>
   <g id="line2d_53">
    <defs>
     <path d="M 0 10 
C 2.652031 10 5.195799 8.946337 7.071068 7.071068 
C 8.946337 5.195799 10 2.652031 10 0 
C 10 -2.652031 8.946337 -5.195799 7.071068 -7.071068 
C 5.195799 -8.946337 2.652031 -10 0 -10 
C -2.652031 -10 -5.195799 -8.946337 -7.071068 -7.071068 
C -8.946337 -5.195799 -10 -2.652031 -10 0 
C -10 2.652031 -8.946337 5.195799 -7.071068 7.071068 
C -5.195799 8.946337 -2.652031 10 0 10 
z
" id="m0e06aa97ee" style="stroke:#00a4ff;stroke-opacity:0.847692;"/>
    </defs>
    <g clip-path="url(#p6931bf4e96)">
     <use style="fill:#00a4ff;fill-opacity:0.847692;stroke:#00a4ff;stroke-opacity:0.847692;" x="411.877279" xlink:href="#m0e06aa97ee" y="289.796731"/>
    </g>
   </g>
   <g id="line2d_54">
    <defs>
     <path d="M 0 10 
C 2.652031 10 5.195799 8.946337 7.071068 7.071068 
C 8.946337 5.195799 10 2.652031 10 0 
C 10 -2.652031 8.946337 -5.195799 7.071068 -7.071068 
C 5.195799 -8.946337 2.652031 -10 0 -10 
C -2.652031 -10 -5.195799 -8.946337 -7.071068 -7.071068 
C -8.946337 -5.195799 -10 -2.652031 -10 0 
C -10 2.652031 -8.946337 5.195799 -7.071068 7.071068 
C -5.195799 8.946337 -2.652031 10 0 10 
z
" id="mdf54bc6991" style="stroke:#00a4ff;stroke-opacity:0.822308;"/>
    </defs>
    <g clip-path="url(#p6931bf4e96)">
     <use style="fill:#00a4ff;fill-opacity:0.822308;stroke:#00a4ff;stroke-opacity:0.822308;" x="411.748228" xlink:href="#mdf54bc6991" y="289.84484"/>
    </g>
   </g>
   <g id="line2d_55">
    <defs>
     <path d="M 0 10 
C 2.652031 10 5.195799 8.946337 7.071068 7.071068 
C 8.946337 5.195799 10 2.652031 10 0 
C 10 -2.652031 8.946337 -5.195799 7.071068 -7.071068 
C 5.195799 -8.946337 2.652031 -10 0 -10 
C -2.652031 -10 -5.195799 -8.946337 -7.071068 -7.071068 
C -8.946337 -5.195799 -10 -2.652031 -10 0 
C -10 2.652031 -8.946337 5.195799 -7.071068 7.071068 
C -5.195799 8.946337 -2.652031 10 0 10 
z
" id="mb086c1611c" style="stroke:#00a4ff;stroke-opacity:0.796923;"/>
    </defs>
    <g clip-path="url(#p6931bf4e96)">
     <use style="fill:#00a4ff;fill-opacity:0.796923;stroke:#00a4ff;stroke-opacity:0.796923;" x="411.169747" xlink:href="#mb086c1611c" y="290.113247"/>
    </g>
   </g>
   <g id="line2d_56">
    <defs>
     <path d="M 0 10 
C 2.652031 10 5.195799 8.946337 7.071068 7.071068 
C 8.946337 5.195799 10 2.652031 10 0 
C 10 -2.652031 8.946337 -5.195799 7.071068 -7.071068 
C 5.195799 -8.946337 2.652031 -10 0 -10 
C -2.652031 -10 -5.195799 -8.946337 -7.071068 -7.071068 
C -8.946337 -5.195799 -10 -2.652031 -10 0 
C -10 2.652031 -8.946337 5.195799 -7.071068 7.071068 
C -5.195799 8.946337 -2.652031 10 0 10 
z
" id="m5189843c31" style="stroke:#00a4ff;stroke-opacity:0.771538;"/>
    </defs>
    <g clip-path="url(#p6931bf4e96)">
     <use style="fill:#00a4ff;fill-opacity:0.771538;stroke:#00a4ff;stroke-opacity:0.771538;" x="411.01398" xlink:href="#m5189843c31" y="290.014375"/>
    </g>
   </g>
   <g id="line2d_57">
    <defs>
     <path d="M 0 10 
C 2.652031 10 5.195799 8.946337 7.071068 7.071068 
C 8.946337 5.195799 10 2.652031 10 0 
C 10 -2.652031 8.946337 -5.195799 7.071068 -7.071068 
C 5.195799 -8.946337 2.652031 -10 0 -10 
C -2.652031 -10 -5.195799 -8.946337 -7.071068 -7.071068 
C -8.946337 -5.195799 -10 -2.652031 -10 0 
C -10 2.652031 -8.946337 5.195799 -7.071068 7.071068 
C -5.195799 8.946337 -2.652031 10 0 10 
z
" id="m41300d5156" style="stroke:#00a4ff;stroke-opacity:0.746154;"/>
    </defs>
    <g clip-path="url(#p6931bf4e96)">
     <use style="fill:#00a4ff;fill-opacity:0.746154;stroke:#00a4ff;stroke-opacity:0.746154;" x="410.793241" xlink:href="#m41300d5156" y="290.482779"/>
    </g>
   </g>
   <g id="line2d_58">
    <defs>
     <path d="M 0 10 
C 2.652031 10 5.195799 8.946337 7.071068 7.071068 
C 8.946337 5.195799 10 2.652031 10 0 
C 10 -2.652031 8.946337 -5.195799 7.071068 -7.071068 
C 5.195799 -8.946337 2.652031 -10 0 -10 
C -2.652031 -10 -5.195799 -8.946337 -7.071068 -7.071068 
C -8.946337 -5.195799 -10 -2.652031 -10 0 
C -10 2.652031 -8.946337 5.195799 -7.071068 7.071068 
C -5.195799 8.946337 -2.652031 10 0 10 
z
" id="m058dc40a62" style="stroke:#00a4ff;stroke-opacity:0.720769;"/>
    </defs>
    <g clip-path="url(#p6931bf4e96)">
     <use style="fill:#00a4ff;fill-opacity:0.720769;stroke:#00a4ff;stroke-opacity:0.720769;" x="410.322965" xlink:href="#m058dc40a62" y="290.6053"/>
    </g>
   </g>
   <g id="line2d_59">
    <defs>
     <path d="M 0 10 
C 2.652031 10 5.195799 8.946337 7.071068 7.071068 
C 8.946337 5.195799 10 2.652031 10 0 
C 10 -2.652031 8.946337 -5.195799 7.071068 -7.071068 
C 5.195799 -8.946337 2.652031 -10 0 -10 
C -2.652031 -10 -5.195799 -8.946337 -7.071068 -7.071068 
C -8.946337 -5.195799 -10 -2.652031 -10 0 
C -10 2.652031 -8.946337 5.195799 -7.071068 7.071068 
C -5.195799 8.946337 -2.652031 10 0 10 
z
" id="mc49eb7aef0" style="stroke:#00a4ff;stroke-opacity:0.695385;"/>
    </defs>
    <g clip-path="url(#p6931bf4e96)">
     <use style="fill:#00a4ff;fill-opacity:0.695385;stroke:#00a4ff;stroke-opacity:0.695385;" x="409.86736" xlink:href="#mc49eb7aef0" y="290.970219"/>
    </g>
   </g>
   <g id="line2d_60">
    <defs>
     <path d="M 0 10 
C 2.652031 10 5.195799 8.946337 7.071068 7.071068 
C 8.946337 5.195799 10 2.652031 10 0 
C 10 -2.652031 8.946337 -5.195799 7.071068 -7.071068 
C 5.195799 -8.946337 2.652031 -10 0 -10 
C -2.652031 -10 -5.195799 -8.946337 -7.071068 -7.071068 
C -8.946337 -5.195799 -10 -2.652031 -10 0 
C -10 2.652031 -8.946337 5.195799 -7.071068 7.071068 
C -5.195799 8.946337 -2.652031 10 0 10 
z
" id="m163a122443" style="stroke:#00a4ff;stroke-opacity:0.67;"/>
    </defs>
    <g clip-path="url(#p6931bf4e96)">
     <use style="fill:#00a4ff;fill-opacity:0.67;stroke:#00a4ff;stroke-opacity:0.67;" x="410.058166" xlink:href="#m163a122443" y="290.961146"/>
    </g>
   </g>
   <g id="line2d_61">
    <defs>
     <path d="M 0 10 
C 2.652031 10 5.195799 8.946337 7.071068 7.071068 
C 8.946337 5.195799 10 2.652031 10 0 
C 10 -2.652031 8.946337 -5.195799 7.071068 -7.071068 
C 5.195799 -8.946337 2.652031 -10 0 -10 
C -2.652031 -10 -5.195799 -8.946337 -7.071068 -7.071068 
C -8.946337 -5.195799 -10 -2.652031 -10 0 
C -10 2.652031 -8.946337 5.195799 -7.071068 7.071068 
C -5.195799 8.946337 -2.652031 10 0 10 
z
" id="m997abf1fe8" style="stroke:#00a4ff;stroke-opacity:0.644615;"/>
    </defs>
    <g clip-path="url(#p6931bf4e96)">
     <use style="fill:#00a4ff;fill-opacity:0.644615;stroke:#00a4ff;stroke-opacity:0.644615;" x="409.86736" xlink:href="#m997abf1fe8" y="291.114978"/>
    </g>
   </g>
   <g id="line2d_62">
    <defs>
     <path d="M 0 10 
C 2.652031 10 5.195799 8.946337 7.071068 7.071068 
C 8.946337 5.195799 10 2.652031 10 0 
C 10 -2.652031 8.946337 -5.195799 7.071068 -7.071068 
C 5.195799 -8.946337 2.652031 -10 0 -10 
C -2.652031 -10 -5.195799 -8.946337 -7.071068 -7.071068 
C -8.946337 -5.195799 -10 -2.652031 -10 0 
C -10 2.652031 -8.946337 5.195799 -7.071068 7.071068 
C -5.195799 8.946337 -2.652031 10 0 10 
z
" id="m2d5d09a58c" style="stroke:#00a4ff;stroke-opacity:0.619231;"/>
    </defs>
    <g clip-path="url(#p6931bf4e96)">
     <use style="fill:#00a4ff;fill-opacity:0.619231;stroke:#00a4ff;stroke-opacity:0.619231;" x="410.142535" xlink:href="#m2d5d09a58c" y="291.961716"/>
    </g>
   </g>
   <g id="line2d_63">
    <defs>
     <path d="M 0 10 
C 2.652031 10 5.195799 8.946337 7.071068 7.071068 
C 8.946337 5.195799 10 2.652031 10 0 
C 10 -2.652031 8.946337 -5.195799 7.071068 -7.071068 
C 5.195799 -8.946337 2.652031 -10 0 -10 
C -2.652031 -10 -5.195799 -8.946337 -7.071068 -7.071068 
C -8.946337 -5.195799 -10 -2.652031 -10 0 
C -10 2.652031 -8.946337 5.195799 -7.071068 7.071068 
C -5.195799 8.946337 -2.652031 10 0 10 
z
" id="mc9c6c6a1c2" style="stroke:#00a4ff;stroke-opacity:0.593846;"/>
    </defs>
    <g clip-path="url(#p6931bf4e96)">
     <use style="fill:#00a4ff;fill-opacity:0.593846;stroke:#00a4ff;stroke-opacity:0.593846;" x="410.024005" xlink:href="#mc9c6c6a1c2" y="291.091105"/>
    </g>
   </g>
   <g id="line2d_64">
    <defs>
     <path d="M 0 10 
C 2.652031 10 5.195799 8.946337 7.071068 7.071068 
C 8.946337 5.195799 10 2.652031 10 0 
C 10 -2.652031 8.946337 -5.195799 7.071068 -7.071068 
C 5.195799 -8.946337 2.652031 -10 0 -10 
C -2.652031 -10 -5.195799 -8.946337 -7.071068 -7.071068 
C -8.946337 -5.195799 -10 -2.652031 -10 0 
C -10 2.652031 -8.946337 5.195799 -7.071068 7.071068 
C -5.195799 8.946337 -2.652031 10 0 10 
z
" id="m953c69a5d2" style="stroke:#00a4ff;stroke-opacity:0.568462;"/>
    </defs>
    <g clip-path="url(#p6931bf4e96)">
     <use style="fill:#00a4ff;fill-opacity:0.568462;stroke:#00a4ff;stroke-opacity:0.568462;" x="410.058166" xlink:href="#m953c69a5d2" y="291.232383"/>
    </g>
   </g>
   <g id="line2d_65">
    <defs>
     <path d="M 0 10 
C 2.652031 10 5.195799 8.946337 7.071068 7.071068 
C 8.946337 5.195799 10 2.652031 10 0 
C 10 -2.652031 8.946337 -5.195799 7.071068 -7.071068 
C 5.195799 -8.946337 2.652031 -10 0 -10 
C -2.652031 -10 -5.195799 -8.946337 -7.071068 -7.071068 
C -8.946337 -5.195799 -10 -2.652031 -10 0 
C -10 2.652031 -8.946337 5.195799 -7.071068 7.071068 
C -5.195799 8.946337 -2.652031 10 0 10 
z
" id="mec79bf22a5" style="stroke:#00a4ff;stroke-opacity:0.543077;"/>
    </defs>
    <g clip-path="url(#p6931bf4e96)">
     <use style="fill:#00a4ff;fill-opacity:0.543077;stroke:#00a4ff;stroke-opacity:0.543077;" x="410.142535" xlink:href="#mec79bf22a5" y="291.663108"/>
    </g>
   </g>
   <g id="line2d_66">
    <defs>
     <path d="M 0 10 
C 2.652031 10 5.195799 8.946337 7.071068 7.071068 
C 8.946337 5.195799 10 2.652031 10 0 
C 10 -2.652031 8.946337 -5.195799 7.071068 -7.071068 
C 5.195799 -8.946337 2.652031 -10 0 -10 
C -2.652031 -10 -5.195799 -8.946337 -7.071068 -7.071068 
C -8.946337 -5.195799 -10 -2.652031 -10 0 
C -10 2.652031 -8.946337 5.195799 -7.071068 7.071068 
C -5.195799 8.946337 -2.652031 10 0 10 
z
" id="mea18bcee80" style="stroke:#00a4ff;stroke-opacity:0.517692;"/>
    </defs>
    <g clip-path="url(#p6931bf4e96)">
     <use style="fill:#00a4ff;fill-opacity:0.517692;stroke:#00a4ff;stroke-opacity:0.517692;" x="410.058166" xlink:href="#mea18bcee80" y="292.255758"/>
    </g>
   </g>
   <g id="line2d_67">
    <defs>
     <path d="M 0 10 
C 2.652031 10 5.195799 8.946337 7.071068 7.071068 
C 8.946337 5.195799 10 2.652031 10 0 
C 10 -2.652031 8.946337 -5.195799 7.071068 -7.071068 
C 5.195799 -8.946337 2.652031 -10 0 -10 
C -2.652031 -10 -5.195799 -8.946337 -7.071068 -7.071068 
C -8.946337 -5.195799 -10 -2.652031 -10 0 
C -10 2.652031 -8.946337 5.195799 -7.071068 7.071068 
C -5.195799 8.946337 -2.652031 10 0 10 
z
" id="m484fbe5964" style="stroke:#00a4ff;stroke-opacity:0.492308;"/>
    </defs>
    <g clip-path="url(#p6931bf4e96)">
     <use style="fill:#00a4ff;fill-opacity:0.492308;stroke:#00a4ff;stroke-opacity:0.492308;" x="410.290689" xlink:href="#m484fbe5964" y="292.078402"/>
    </g>
   </g>
   <g id="line2d_68">
    <defs>
     <path d="M 0 10 
C 2.652031 10 5.195799 8.946337 7.071068 7.071068 
C 8.946337 5.195799 10 2.652031 10 0 
C 10 -2.652031 8.946337 -5.195799 7.071068 -7.071068 
C 5.195799 -8.946337 2.652031 -10 0 -10 
C -2.652031 -10 -5.195799 -8.946337 -7.071068 -7.071068 
C -8.946337 -5.195799 -10 -2.652031 -10 0 
C -10 2.652031 -8.946337 5.195799 -7.071068 7.071068 
C -5.195799 8.946337 -2.652031 10 0 10 
z
" id="m7976896a17" style="stroke:#00a4ff;stroke-opacity:0.466923;"/>
    </defs>
    <g clip-path="url(#p6931bf4e96)">
     <use style="fill:#00a4ff;fill-opacity:0.466923;stroke:#00a4ff;stroke-opacity:0.466923;" x="410.82165" xlink:href="#m7976896a17" y="291.349273"/>
    </g>
   </g>
   <g id="line2d_69">
    <defs>
     <path d="M 0 10 
C 2.652031 10 5.195799 8.946337 7.071068 7.071068 
C 8.946337 5.195799 10 2.652031 10 0 
C 10 -2.652031 8.946337 -5.195799 7.071068 -7.071068 
C 5.195799 -8.946337 2.652031 -10 0 -10 
C -2.652031 -10 -5.195799 -8.946337 -7.071068 -7.071068 
C -8.946337 -5.195799 -10 -2.652031 -10 0 
C -10 2.652031 -8.946337 5.195799 -7.071068 7.071068 
C -5.195799 8.946337 -2.652031 10 0 10 
z
" id="m7eda0b956b" style="stroke:#00a4ff;stroke-opacity:0.441538;"/>
    </defs>
    <g clip-path="url(#p6931bf4e96)">
     <use style="fill:#00a4ff;fill-opacity:0.441538;stroke:#00a4ff;stroke-opacity:0.441538;" x="410.706611" xlink:href="#m7eda0b956b" y="291.919472"/>
    </g>
   </g>
   <g id="line2d_70">
    <defs>
     <path d="M 0 10 
C 2.652031 10 5.195799 8.946337 7.071068 7.071068 
C 8.946337 5.195799 10 2.652031 10 0 
C 10 -2.652031 8.946337 -5.195799 7.071068 -7.071068 
C 5.195799 -8.946337 2.652031 -10 0 -10 
C -2.652031 -10 -5.195799 -8.946337 -7.071068 -7.071068 
C -8.946337 -5.195799 -10 -2.652031 -10 0 
C -10 2.652031 -8.946337 5.195799 -7.071068 7.071068 
C -5.195799 8.946337 -2.652031 10 0 10 
z
" id="m6f6fcccc27" style="stroke:#00a4ff;stroke-opacity:0.416154;"/>
    </defs>
    <g clip-path="url(#p6931bf4e96)">
     <use style="fill:#00a4ff;fill-opacity:0.416154;stroke:#00a4ff;stroke-opacity:0.416154;" x="410.44972" xlink:href="#m6f6fcccc27" y="291.97386"/>
    </g>
   </g>
   <g id="line2d_71">
    <defs>
     <path d="M 0 10 
C 2.652031 10 5.195799 8.946337 7.071068 7.071068 
C 8.946337 5.195799 10 2.652031 10 0 
C 10 -2.652031 8.946337 -5.195799 7.071068 -7.071068 
C 5.195799 -8.946337 2.652031 -10 0 -10 
C -2.652031 -10 -5.195799 -8.946337 -7.071068 -7.071068 
C -8.946337 -5.195799 -10 -2.652031 -10 0 
C -10 2.652031 -8.946337 5.195799 -7.071068 7.071068 
C -5.195799 8.946337 -2.652031 10 0 10 
z
" id="m085b30049a" style="stroke:#00a4ff;stroke-opacity:0.390769;"/>
    </defs>
    <g clip-path="url(#p6931bf4e96)">
     <use style="fill:#00a4ff;fill-opacity:0.390769;stroke:#00a4ff;stroke-opacity:0.390769;" x="410.322965" xlink:href="#m085b30049a" y="291.318366"/>
    </g>
   </g>
   <g id="line2d_72">
    <defs>
     <path d="M 0 10 
C 2.652031 10 5.195799 8.946337 7.071068 7.071068 
C 8.946337 5.195799 10 2.652031 10 0 
C 10 -2.652031 8.946337 -5.195799 7.071068 -7.071068 
C 5.195799 -8.946337 2.652031 -10 0 -10 
C -2.652031 -10 -5.195799 -8.946337 -7.071068 -7.071068 
C -8.946337 -5.195799 -10 -2.652031 -10 0 
C -10 2.652031 -8.946337 5.195799 -7.071068 7.071068 
C -5.195799 8.946337 -2.652031 10 0 10 
z
" id="mc21458b408" style="stroke:#00a4ff;stroke-opacity:0.365385;"/>
    </defs>
    <g clip-path="url(#p6931bf4e96)">
     <use style="fill:#00a4ff;fill-opacity:0.365385;stroke:#00a4ff;stroke-opacity:0.365385;" x="410.041115" xlink:href="#mc21458b408" y="291.742964"/>
    </g>
   </g>
   <g id="line2d_73">
    <defs>
     <path d="M 0 10 
C 2.652031 10 5.195799 8.946337 7.071068 7.071068 
C 8.946337 5.195799 10 2.652031 10 0 
C 10 -2.652031 8.946337 -5.195799 7.071068 -7.071068 
C 5.195799 -8.946337 2.652031 -10 0 -10 
C -2.652031 -10 -5.195799 -8.946337 -7.071068 -7.071068 
C -8.946337 -5.195799 -10 -2.652031 -10 0 
C -10 2.652031 -8.946337 5.195799 -7.071068 7.071068 
C -5.195799 8.946337 -2.652031 10 0 10 
z
" id="m9d6bf1d028" style="stroke:#00a4ff;stroke-opacity:0.34;"/>
    </defs>
    <g clip-path="url(#p6931bf4e96)">
     <use style="fill:#00a4ff;fill-opacity:0.34;stroke:#00a4ff;stroke-opacity:0.34;" x="410.041115" xlink:href="#m9d6bf1d028" y="292.268673"/>
    </g>
   </g>
   <g id="line2d_74">
    <defs>
     <path d="M 0 10 
C 2.652031 10 5.195799 8.946337 7.071068 7.071068 
C 8.946337 5.195799 10 2.652031 10 0 
C 10 -2.652031 8.946337 -5.195799 7.071068 -7.071068 
C 5.195799 -8.946337 2.652031 -10 0 -10 
C -2.652031 -10 -5.195799 -8.946337 -7.071068 -7.071068 
C -8.946337 -5.195799 -10 -2.652031 -10 0 
C -10 2.652031 -8.946337 5.195799 -7.071068 7.071068 
C -5.195799 8.946337 -2.652031 10 0 10 
z
" id="me190f721a9" style="stroke:#00a4ff;stroke-opacity:0.314615;"/>
    </defs>
    <g clip-path="url(#p6931bf4e96)">
     <use style="fill:#00a4ff;fill-opacity:0.314615;stroke:#00a4ff;stroke-opacity:0.314615;" x="409.814081" xlink:href="#me190f721a9" y="292.255758"/>
    </g>
   </g>
   <g id="line2d_75">
    <defs>
     <path d="M 0 10 
C 2.652031 10 5.195799 8.946337 7.071068 7.071068 
C 8.946337 5.195799 10 2.652031 10 0 
C 10 -2.652031 8.946337 -5.195799 7.071068 -7.071068 
C 5.195799 -8.946337 2.652031 -10 0 -10 
C -2.652031 -10 -5.195799 -8.946337 -7.071068 -7.071068 
C -8.946337 -5.195799 -10 -2.652031 -10 0 
C -10 2.652031 -8.946337 5.195799 -7.071068 7.071068 
C -5.195799 8.946337 -2.652031 10 0 10 
z
" id="mafcad44a82" style="stroke:#00a4ff;stroke-opacity:0.289231;"/>
    </defs>
    <g clip-path="url(#p6931bf4e96)">
     <use style="fill:#00a4ff;fill-opacity:0.289231;stroke:#00a4ff;stroke-opacity:0.289231;" x="409.595636" xlink:href="#mafcad44a82" y="291.871684"/>
    </g>
   </g>
   <g id="line2d_76">
    <defs>
     <path d="M 0 10 
C 2.652031 10 5.195799 8.946337 7.071068 7.071068 
C 8.946337 5.195799 10 2.652031 10 0 
C 10 -2.652031 8.946337 -5.195799 7.071068 -7.071068 
C 5.195799 -8.946337 2.652031 -10 0 -10 
C -2.652031 -10 -5.195799 -8.946337 -7.071068 -7.071068 
C -8.946337 -5.195799 -10 -2.652031 -10 0 
C -10 2.652031 -8.946337 5.195799 -7.071068 7.071068 
C -5.195799 8.946337 -2.652031 10 0 10 
z
" id="m407007d958" style="stroke:#00a4ff;stroke-opacity:0.263846;"/>
    </defs>
    <g clip-path="url(#p6931bf4e96)">
     <use style="fill:#00a4ff;fill-opacity:0.263846;stroke:#00a4ff;stroke-opacity:0.263846;" x="409.212557" xlink:href="#m407007d958" y="291.65183"/>
    </g>
   </g>
   <g id="line2d_77">
    <defs>
     <path d="M 0 10 
C 2.652031 10 5.195799 8.946337 7.071068 7.071068 
C 8.946337 5.195799 10 2.652031 10 0 
C 10 -2.652031 8.946337 -5.195799 7.071068 -7.071068 
C 5.195799 -8.946337 2.652031 -10 0 -10 
C -2.652031 -10 -5.195799 -8.946337 -7.071068 -7.071068 
C -8.946337 -5.195799 -10 -2.652031 -10 0 
C -10 2.652031 -8.946337 5.195799 -7.071068 7.071068 
C -5.195799 8.946337 -2.652031 10 0 10 
z
" id="mc0582f5b4e" style="stroke:#00a4ff;stroke-opacity:0.238462;"/>
    </defs>
    <g clip-path="url(#p6931bf4e96)">
     <use style="fill:#00a4ff;fill-opacity:0.238462;stroke:#00a4ff;stroke-opacity:0.238462;" x="409.172939" xlink:href="#mc0582f5b4e" y="292.373177"/>
    </g>
   </g>
   <g id="line2d_78">
    <defs>
     <path d="M 0 10 
C 2.652031 10 5.195799 8.946337 7.071068 7.071068 
C 8.946337 5.195799 10 2.652031 10 0 
C 10 -2.652031 8.946337 -5.195799 7.071068 -7.071068 
C 5.195799 -8.946337 2.652031 -10 0 -10 
C -2.652031 -10 -5.195799 -8.946337 -7.071068 -7.071068 
C -8.946337 -5.195799 -10 -2.652031 -10 0 
C -10 2.652031 -8.946337 5.195799 -7.071068 7.071068 
C -5.195799 8.946337 -2.652031 10 0 10 
z
" id="mf5d6644100" style="stroke:#00a4ff;stroke-opacity:0.213077;"/>
    </defs>
    <g clip-path="url(#p6931bf4e96)">
     <use style="fill:#00a4ff;fill-opacity:0.213077;stroke:#00a4ff;stroke-opacity:0.213077;" x="409.407071" xlink:href="#mf5d6644100" y="291.925482"/>
    </g>
   </g>
   <g id="line2d_79">
    <defs>
     <path d="M 0 10 
C 2.652031 10 5.195799 8.946337 7.071068 7.071068 
C 8.946337 5.195799 10 2.652031 10 0 
C 10 -2.652031 8.946337 -5.195799 7.071068 -7.071068 
C 5.195799 -8.946337 2.652031 -10 0 -10 
C -2.652031 -10 -5.195799 -8.946337 -7.071068 -7.071068 
C -8.946337 -5.195799 -10 -2.652031 -10 0 
C -10 2.652031 -8.946337 5.195799 -7.071068 7.071068 
C -5.195799 8.946337 -2.652031 10 0 10 
z
" id="meaf227e5d8" style="stroke:#00a4ff;stroke-opacity:0.187692;"/>
    </defs>
    <g clip-path="url(#p6931bf4e96)">
     <use style="fill:#00a4ff;fill-opacity:0.187692;stroke:#00a4ff;stroke-opacity:0.187692;" x="408.721354" xlink:href="#meaf227e5d8" y="292.103344"/>
    </g>
   </g>
   <g id="line2d_80">
    <defs>
     <path d="M 0 10 
C 2.652031 10 5.195799 8.946337 7.071068 7.071068 
C 8.946337 5.195799 10 2.652031 10 0 
C 10 -2.652031 8.946337 -5.195799 7.071068 -7.071068 
C 5.195799 -8.946337 2.652031 -10 0 -10 
C -2.652031 -10 -5.195799 -8.946337 -7.071068 -7.071068 
C -8.946337 -5.195799 -10 -2.652031 -10 0 
C -10 2.652031 -8.946337 5.195799 -7.071068 7.071068 
C -5.195799 8.946337 -2.652031 10 0 10 
z
" id="m2172feddd8" style="stroke:#00a4ff;stroke-opacity:0.162308;"/>
    </defs>
    <g clip-path="url(#p6931bf4e96)">
     <use style="fill:#00a4ff;fill-opacity:0.162308;stroke:#00a4ff;stroke-opacity:0.162308;" x="408.805617" xlink:href="#m2172feddd8" y="292.439563"/>
    </g>
   </g>
   <g id="line2d_81">
    <defs>
     <path d="M 0 10 
C 2.652031 10 5.195799 8.946337 7.071068 7.071068 
C 8.946337 5.195799 10 2.652031 10 0 
C 10 -2.652031 8.946337 -5.195799 7.071068 -7.071068 
C 5.195799 -8.946337 2.652031 -10 0 -10 
C -2.652031 -10 -5.195799 -8.946337 -7.071068 -7.071068 
C -8.946337 -5.195799 -10 -2.652031 -10 0 
C -10 2.652031 -8.946337 5.195799 -7.071068 7.071068 
C -5.195799 8.946337 -2.652031 10 0 10 
z
" id="mace28fc5d2" style="stroke:#00a4ff;stroke-opacity:0.136923;"/>
    </defs>
    <g clip-path="url(#p6931bf4e96)">
     <use style="fill:#00a4ff;fill-opacity:0.136923;stroke:#00a4ff;stroke-opacity:0.136923;" x="408.805617" xlink:href="#mace28fc5d2" y="292.084625"/>
    </g>
   </g>
   <g id="line2d_82">
    <defs>
     <path d="M 0 10 
C 2.652031 10 5.195799 8.946337 7.071068 7.071068 
C 8.946337 5.195799 10 2.652031 10 0 
C 10 -2.652031 8.946337 -5.195799 7.071068 -7.071068 
C 5.195799 -8.946337 2.652031 -10 0 -10 
C -2.652031 -10 -5.195799 -8.946337 -7.071068 -7.071068 
C -8.946337 -5.195799 -10 -2.652031 -10 0 
C -10 2.652031 -8.946337 5.195799 -7.071068 7.071068 
C -5.195799 8.946337 -2.652031 10 0 10 
z
" id="m7953644ee5" style="stroke:#00a4ff;stroke-opacity:0.111538;"/>
    </defs>
    <g clip-path="url(#p6931bf4e96)">
     <use style="fill:#00a4ff;fill-opacity:0.111538;stroke:#00a4ff;stroke-opacity:0.111538;" x="409.577047" xlink:href="#m7953644ee5" y="292.281621"/>
    </g>
   </g>
   <g id="line2d_83">
    <defs>
     <path d="M 0 10 
C 2.652031 10 5.195799 8.946337 7.071068 7.071068 
C 8.946337 5.195799 10 2.652031 10 0 
C 10 -2.652031 8.946337 -5.195799 7.071068 -7.071068 
C 5.195799 -8.946337 2.652031 -10 0 -10 
C -2.652031 -10 -5.195799 -8.946337 -7.071068 -7.071068 
C -8.946337 -5.195799 -10 -2.652031 -10 0 
C -10 2.652031 -8.946337 5.195799 -7.071068 7.071068 
C -5.195799 8.946337 -2.652031 10 0 10 
z
" id="m2486011796" style="stroke:#00a4ff;stroke-opacity:0.086154;"/>
    </defs>
    <g clip-path="url(#p6931bf4e96)">
     <use style="fill:#00a4ff;fill-opacity:0.086154;stroke:#00a4ff;stroke-opacity:0.086154;" x="409.32998" xlink:href="#m2486011796" y="292.059781"/>
    </g>
   </g>
   <g id="line2d_84">
    <defs>
     <path d="M 0 10 
C 2.652031 10 5.195799 8.946337 7.071068 7.071068 
C 8.946337 5.195799 10 2.652031 10 0 
C 10 -2.652031 8.946337 -5.195799 7.071068 -7.071068 
C 5.195799 -8.946337 2.652031 -10 0 -10 
C -2.652031 -10 -5.195799 -8.946337 -7.071068 -7.071068 
C -8.946337 -5.195799 -10 -2.652031 -10 0 
C -10 2.652031 -8.946337 5.195799 -7.071068 7.071068 
C -5.195799 8.946337 -2.652031 10 0 10 
z
" id="m822c77fdbd" style="stroke:#00a4ff;stroke-opacity:0.060769;"/>
    </defs>
    <g clip-path="url(#p6931bf4e96)">
     <use style="fill:#00a4ff;fill-opacity:0.060769;stroke:#00a4ff;stroke-opacity:0.060769;" x="409.669399" xlink:href="#m822c77fdbd" y="292.172613"/>
    </g>
   </g>
   <g id="line2d_85">
    <defs>
     <path d="M 0 10 
C 2.652031 10 5.195799 8.946337 7.071068 7.071068 
C 8.946337 5.195799 10 2.652031 10 0 
C 10 -2.652031 8.946337 -5.195799 7.071068 -7.071068 
C 5.195799 -8.946337 2.652031 -10 0 -10 
C -2.652031 -10 -5.195799 -8.946337 -7.071068 -7.071068 
C -8.946337 -5.195799 -10 -2.652031 -10 0 
C -10 2.652031 -8.946337 5.195799 -7.071068 7.071068 
C -5.195799 8.946337 -2.652031 10 0 10 
z
" id="m4ba153ac05" style="stroke:#00a4ff;stroke-opacity:0.035385;"/>
    </defs>
    <g clip-path="url(#p6931bf4e96)">
     <use style="fill:#00a4ff;fill-opacity:0.035385;stroke:#00a4ff;stroke-opacity:0.035385;" x="409.76027" xlink:href="#m4ba153ac05" y="292.059781"/>
    </g>
   </g>
   <g id="line2d_86">
    <defs>
     <path d="M 0 10 
C 2.652031 10 5.195799 8.946337 7.071068 7.071068 
C 8.946337 5.195799 10 2.652031 10 0 
C 10 -2.652031 8.946337 -5.195799 7.071068 -7.071068 
C 5.195799 -8.946337 2.652031 -10 0 -10 
C -2.652031 -10 -5.195799 -8.946337 -7.071068 -7.071068 
C -8.946337 -5.195799 -10 -2.652031 -10 0 
C -10 2.652031 -8.946337 5.195799 -7.071068 7.071068 
C -5.195799 8.946337 -2.652031 10 0 10 
z
" id="m05b32ec2b1" style="stroke:#00a4ff;stroke-opacity:0.01;"/>
    </defs>
    <g clip-path="url(#p6931bf4e96)">
     <use style="fill:#00a4ff;fill-opacity:0.01;stroke:#00a4ff;stroke-opacity:0.01;" x="409.86736" xlink:href="#m05b32ec2b1" y="292.307615"/>
    </g>
   </g>
   <g id="line2d_87">
    <path clip-path="url(#p6931bf4e96)" d="M 184.282273 487.349727 
L 640.827727 92.004273 
" style="fill:none;stroke:#000000;stroke-linecap:square;stroke-width:4;"/>
   </g>
   <g id="patch_3">
    <path d="M 161.455 507.117 
L 161.455 72.237 
" style="fill:none;stroke:#000000;stroke-linecap:square;stroke-linejoin:miter;stroke-width:2;"/>
   </g>
   <g id="patch_4">
    <path d="M 663.655 507.117 
L 663.655 72.237 
" style="fill:none;stroke:#000000;stroke-linecap:square;stroke-linejoin:miter;stroke-width:2;"/>
   </g>
   <g id="patch_5">
    <path d="M 161.455 507.117 
L 663.655 507.117 
" style="fill:none;stroke:#000000;stroke-linecap:square;stroke-linejoin:miter;stroke-width:2;"/>
   </g>
   <g id="patch_6">
    <path d="M 161.455 72.237 
L 663.655 72.237 
" style="fill:none;stroke:#000000;stroke-linecap:square;stroke-linejoin:miter;stroke-width:2;"/>
   </g>
   <g id="text_8">
    <!-- Std -->
    <g transform="translate(356.72125 58.2615)scale(0.672 -0.672)">
     <defs>
      <path d="M 53.515625 70.515625 
L 53.515625 60.890625 
Q 47.90625 63.578125 42.921875 64.890625 
Q 37.9375 66.21875 33.296875 66.21875 
Q 25.25 66.21875 20.875 63.09375 
Q 16.5 59.96875 16.5 54.203125 
Q 16.5 49.359375 19.40625 46.890625 
Q 22.3125 44.4375 30.421875 42.921875 
L 36.375 41.703125 
Q 47.40625 39.59375 52.65625 34.296875 
Q 57.90625 29 57.90625 20.125 
Q 57.90625 9.515625 50.796875 4.046875 
Q 43.703125 -1.421875 29.984375 -1.421875 
Q 24.8125 -1.421875 18.96875 -0.25 
Q 13.140625 0.921875 6.890625 3.21875 
L 6.890625 13.375 
Q 12.890625 10.015625 18.65625 8.296875 
Q 24.421875 6.59375 29.984375 6.59375 
Q 38.421875 6.59375 43.015625 9.90625 
Q 47.609375 13.234375 47.609375 19.390625 
Q 47.609375 24.75 44.3125 27.78125 
Q 41.015625 30.8125 33.5 32.328125 
L 27.484375 33.5 
Q 16.453125 35.6875 11.515625 40.375 
Q 6.59375 45.0625 6.59375 53.421875 
Q 6.59375 63.09375 13.40625 68.65625 
Q 20.21875 74.21875 32.171875 74.21875 
Q 37.3125 74.21875 42.625 73.28125 
Q 47.953125 72.359375 53.515625 70.515625 
z
" id="DejaVuSans-83"/>
      <path d="M 18.3125 70.21875 
L 18.3125 54.6875 
L 36.8125 54.6875 
L 36.8125 47.703125 
L 18.3125 47.703125 
L 18.3125 18.015625 
Q 18.3125 11.328125 20.140625 9.421875 
Q 21.96875 7.515625 27.59375 7.515625 
L 36.8125 7.515625 
L 36.8125 0 
L 27.59375 0 
Q 17.1875 0 13.234375 3.875 
Q 9.28125 7.765625 9.28125 18.015625 
L 9.28125 47.703125 
L 2.6875 47.703125 
L 2.6875 54.6875 
L 9.28125 54.6875 
L 9.28125 70.21875 
z
" id="DejaVuSans-116"/>
      <path d="M 45.40625 46.390625 
L 45.40625 75.984375 
L 54.390625 75.984375 
L 54.390625 0 
L 45.40625 0 
L 45.40625 8.203125 
Q 42.578125 3.328125 38.25 0.953125 
Q 33.9375 -1.421875 27.875 -1.421875 
Q 17.96875 -1.421875 11.734375 6.484375 
Q 5.515625 14.40625 5.515625 27.296875 
Q 5.515625 40.1875 11.734375 48.09375 
Q 17.96875 56 27.875 56 
Q 33.9375 56 38.25 53.625 
Q 42.578125 51.265625 45.40625 46.390625 
z
M 14.796875 27.296875 
Q 14.796875 17.390625 18.875 11.75 
Q 22.953125 6.109375 30.078125 6.109375 
Q 37.203125 6.109375 41.296875 11.75 
Q 45.40625 17.390625 45.40625 27.296875 
Q 45.40625 37.203125 41.296875 42.84375 
Q 37.203125 48.484375 30.078125 48.484375 
Q 22.953125 48.484375 18.875 42.84375 
Q 14.796875 37.203125 14.796875 27.296875 
z
" id="DejaVuSans-100"/>
     </defs>
     <use xlink:href="#DejaVuSans-83"/>
     <use x="63.476562" xlink:href="#DejaVuSans-116"/>
     <use x="102.685547" xlink:href="#DejaVuSans-100"/>
    </g>
   </g>
   <g id="legend_1">
    <g id="patch_7">
     <path d="M 196.455 264.119812 
L 387.455 264.119812 
Q 397.455 264.119812 397.455 254.119812 
L 397.455 107.237 
Q 397.455 97.237 387.455 97.237 
L 196.455 97.237 
Q 186.455 97.237 186.455 107.237 
L 186.455 254.119812 
Q 186.455 264.119812 196.455 264.119812 
z
" style="fill:#ffffff;opacity:0.8;stroke:#cccccc;stroke-linejoin:miter;"/>
    </g>
    <g id="line2d_88"/>
    <g id="line2d_89">
     <g>
      <use style="fill:#000080;stroke:#000080;" x="256.455" xlink:href="#m13f33d0500" y="137.729187"/>
     </g>
    </g>
    <g id="text_9">
     <!-- $G_x$ -->
     <g transform="translate(316.455 155.229187)scale(0.5 -0.5)">
      <defs>
       <path d="M 54.59375 10.890625 
L 58.40625 29.984375 
L 42.1875 29.984375 
L 43.703125 38.09375 
L 69.578125 38.09375 
L 63.28125 6 
Q 56.78125 2.4375 49.109375 0.5 
Q 41.453125 -1.421875 33.6875 -1.421875 
Q 19.96875 -1.421875 12.234375 6.1875 
Q 4.5 13.8125 4.5 27.390625 
Q 4.5 38.671875 9.203125 48.84375 
Q 13.921875 59.03125 22.21875 65.828125 
Q 27.4375 70.0625 33.640625 72.140625 
Q 39.84375 74.21875 47.40625 74.21875 
Q 54.25 74.21875 60.515625 72.484375 
Q 66.796875 70.75 72.515625 67.28125 
L 70.515625 56.78125 
Q 66.109375 61.375 60.203125 63.796875 
Q 54.296875 66.21875 47.609375 66.21875 
Q 39.84375 66.21875 33.9375 63.25 
Q 28.03125 60.296875 23.390625 54.109375 
Q 19.4375 48.828125 17.15625 41.671875 
Q 14.890625 34.515625 14.890625 27.09375 
Q 14.890625 16.890625 20.109375 11.734375 
Q 25.34375 6.59375 35.6875 6.59375 
Q 40.875 6.59375 45.703125 7.6875 
Q 50.53125 8.796875 54.59375 10.890625 
z
" id="DejaVuSans-Oblique-71"/>
       <path d="M 60.015625 54.6875 
L 34.90625 27.875 
L 50.296875 0 
L 39.984375 0 
L 28.421875 21.6875 
L 8.296875 0 
L -2.59375 0 
L 24.3125 28.8125 
L 10.015625 54.6875 
L 20.3125 54.6875 
L 30.8125 34.90625 
L 49.125 54.6875 
z
" id="DejaVuSans-Oblique-120"/>
      </defs>
      <use transform="translate(0 0.78125)" xlink:href="#DejaVuSans-Oblique-71"/>
      <use transform="translate(77.490234 -15.625)scale(0.7)" xlink:href="#DejaVuSans-Oblique-120"/>
     </g>
    </g>
    <g id="line2d_90"/>
    <g id="line2d_91">
     <g>
      <use style="fill:#00a4ff;stroke:#00a4ff;" x="256.455" xlink:href="#m40a12fd456" y="211.119812"/>
     </g>
    </g>
    <g id="text_10">
     <!-- $G_y$ -->
     <g transform="translate(316.455 228.619812)scale(0.5 -0.5)">
      <defs>
       <path d="M 24.8125 -5.078125 
Q 18.5625 -15.578125 14.625 -18.1875 
Q 10.6875 -20.796875 4.59375 -20.796875 
L -2.484375 -20.796875 
L -0.984375 -13.28125 
L 4.203125 -13.28125 
Q 7.953125 -13.28125 10.59375 -11.234375 
Q 13.234375 -9.1875 16.5 -3.21875 
L 19.28125 2 
L 7.171875 54.6875 
L 16.703125 54.6875 
L 25.78125 12.796875 
L 50.875 54.6875 
L 60.296875 54.6875 
z
" id="DejaVuSans-Oblique-121"/>
      </defs>
      <use transform="translate(0 0.78125)" xlink:href="#DejaVuSans-Oblique-71"/>
      <use transform="translate(77.490234 -15.625)scale(0.7)" xlink:href="#DejaVuSans-Oblique-121"/>
     </g>
    </g>
   </g>
  </g>
 </g>
 <defs>
  <clipPath id="p6931bf4e96">
   <rect height="434.88" width="502.2" x="161.455" y="72.237"/>
  </clipPath>
 </defs>
</svg>
